<svg width="362" height="357" viewBox="0 0 362 357" fill="none" xmlns="http://www.w3.org/2000/svg">
<path d="M224.037 8.06942C233.775 7.90519 242.496 8.74275 250.97 11.4525C256.439 13.1933 261.546 15.6896 266.407 18.8099C274.142 23.7695 281.188 29.5339 287.412 36.2672C298.005 47.7467 307.185 60.2443 314.148 74.2529C318.106 82.2343 320.849 90.5771 321.883 99.5275C322.343 103.551 323.64 107.591 322.885 111.598C321.653 118.167 321.85 124.851 320.372 131.42C318.796 138.433 316.891 145.265 314.132 151.883C310.552 160.456 306.249 168.634 300.714 176.09C297.61 180.278 294.507 184.531 290.844 188.21C286.443 192.628 281.204 196.192 276.77 200.576C270.382 206.899 262.515 210.644 254.55 214.24C250.822 215.932 246.799 216.983 242.923 218.346C242.315 218.559 241.74 218.838 241.182 219.15C237.388 221.318 233.217 222.336 228.98 223.108C228.208 223.24 227.321 223.273 226.73 223.683C221.984 226.951 216.334 227.953 211.063 229.874C201.784 233.258 192.374 236.263 182.964 239.252C178.497 240.664 173.898 241.617 169.398 242.898C165.128 244.097 160.924 245.492 156.671 246.691C149.018 248.826 141.316 250.846 133.663 252.981C126.749 254.903 119.884 256.988 112.986 258.893C110.096 259.698 107.14 260.273 104.184 260.864C101.31 261.455 98.6986 262.539 96.498 264.526C95.3977 265.528 95.3484 266.53 96.3995 267.565C97.0564 268.205 97.6968 268.911 98.4851 269.355C102.574 271.637 106.729 273.789 110.802 276.088C121.526 282.164 132.858 287.141 142.876 294.547C150.315 300.049 157.722 305.534 164.603 311.775C173.34 319.69 181.124 328.46 188.301 337.788C190.288 340.383 192.127 343.093 194.032 345.753C194.18 345.967 194.394 346.147 194.525 346.377C195.625 348.545 197.465 350.598 195.888 353.275C194.443 355.755 192.095 356.214 189.467 356.116C186.445 356.017 183.423 356.198 180.402 356.017C172.683 355.574 166.081 352.782 160.694 347.001C151.793 337.46 142.202 328.575 131.971 320.479C124.088 314.238 115.302 309.344 106.253 304.959C97.5983 300.771 88.9107 296.584 81.3727 290.524C75.247 285.613 69.6305 280.194 66.4444 272.721C63.3241 265.397 63.4391 258.253 67.1835 251.224C68.6779 248.432 70.895 246.56 74.196 246.248C77.4641 245.936 80.7322 245.64 83.9839 245.263C90.6187 244.458 97.2699 243.85 103.839 242.701C110.392 241.567 116.846 239.909 123.316 238.398C128.243 237.248 133.219 236.214 138.047 234.736C143.746 232.978 149.33 230.893 154.914 228.791C162.369 225.982 169.809 223.141 177.15 220.07C184.31 217.081 191.405 213.895 198.434 210.578C203.952 207.983 209.191 204.715 214.807 202.399C222.608 199.197 230.179 195.551 237.52 191.478C245.6 186.995 253.614 182.265 261.152 176.928C266.999 172.806 271.86 167.419 276.245 161.655C283.306 152.376 288.052 142.013 291.682 131.043C295.607 119.169 296.822 106.918 295.344 94.6007C294.195 85.0755 290.582 76.158 285.573 67.8973C279.217 57.4032 270.956 48.4693 261.349 41.0462C247.685 30.4864 232.199 27.5139 215.382 32.1616C211.851 33.1305 208.205 33.656 204.625 34.4607C201.685 35.1176 198.762 35.8074 195.855 36.5628C192.702 37.3675 189.615 38.4022 186.429 39.0591C182.734 39.8309 178.94 40.1429 175.261 40.9477C170.827 41.9166 166.344 42.9184 162.074 44.4293C151.793 48.0423 142.383 53.2647 133.942 60.2608C124.351 68.1929 115.68 76.9791 107.665 86.4714C100.686 94.7485 93.7226 103.042 86.2995 110.925C78.2524 119.465 69.5155 127.315 60.2038 134.508C51.7133 141.06 42.7629 146.858 33.1885 151.637C26.6686 154.888 19.8204 157.385 12.7422 159.24C12.1181 159.405 11.5269 159.7 10.9193 159.93C5.54905 161.934 0.605811 158.501 0.244511 152.77C-0.100365 147.301 2.74076 143.294 6.04173 139.599C7.81538 137.612 10.2459 136.134 12.5615 134.705C25.2234 126.904 38.0332 119.317 49.1513 109.332C57.4776 101.843 65.2292 93.7795 72.4716 85.2069C77.3491 79.4425 82.2595 73.711 87.3341 68.1108C92.4909 62.4122 97.779 56.812 103.166 51.3104C113.578 40.6685 125.369 31.9973 139.181 26.1672C147.605 22.6035 156.293 19.9266 165.227 18.0051C170.794 16.8063 176.263 15.1476 181.814 13.8174C184.852 13.0948 187.972 12.6185 191.044 12.0437C202.211 9.92521 213.411 7.64243 224.037 8.06942Z" fill="#F9F9F9"/>
<path d="M0.245705 206.092C3.23464 206.092 5.59951 205.78 7.86584 206.141C16.2907 207.488 24.3378 206.305 31.958 202.61C36.2771 200.524 40.4485 198.11 44.5706 195.68C50.6306 192.116 56.477 188.174 63.1282 185.727C69.1061 183.527 75.0347 181.162 81.1111 179.273C84.5763 178.206 88.2878 177.877 91.9008 177.368C114.909 174.149 138.016 176.252 161.09 176.284C170.664 176.301 180.255 176.137 189.813 175.529C194.838 175.217 199.798 173.772 204.774 172.836C208.223 172.195 211.77 171.801 215.12 170.832C220.261 169.354 225.45 167.843 230.311 165.675C236.716 162.834 242.99 159.583 249.066 156.084C257.261 151.338 264.306 145.131 269.282 137.001C272.058 132.469 274.324 127.46 274.423 121.942C274.505 116.966 274.899 111.842 273.93 107.03C272.764 101.167 270.465 95.4847 267.065 90.4101C259.807 79.5218 250.561 71.097 237.964 66.7121C231.937 64.61 225.795 63.2305 219.505 64.0681C213.593 64.8564 207.664 65.7596 201.917 67.6318C189.09 71.8196 177.824 78.6678 167.068 86.6821C149.627 99.6725 134.781 115.405 119.557 130.777C111.296 139.12 103.15 147.627 94.3314 155.378C84.1493 164.329 72.9819 172.113 60.9112 178.419C53.3075 182.394 45.4903 185.859 37.3446 188.684C30.6441 190.999 23.9272 192.904 16.9312 193.955C14.4842 194.333 12.1029 195.236 9.65592 195.351C4.20358 195.598 0.574159 191.59 0.0979006 186.187C-0.444049 179.832 4.12147 174.675 8.5556 173.066C11.4624 171.998 14.6648 171.817 17.7359 171.177C25.3889 169.6 33.0747 168.27 40.1857 164.723C45.0633 162.292 50.2364 160.404 55.1304 158.006C63.2104 154.048 70.5513 148.908 77.8101 143.587C91.8351 133.29 104.284 121.219 116.83 109.28C123.334 103.088 129.427 96.4865 136.012 90.3937C145.8 81.3448 156.179 72.9692 167.675 66.1702C172.356 63.3947 177.48 61.2762 182.571 59.2891C188.351 57.0391 194.231 54.8713 200.241 53.3604C210.21 50.8642 220.474 49.7146 230.64 51.5704C239.525 53.1962 247.522 57.3347 254.798 62.8035C265.998 71.2283 274.571 81.7553 280.056 94.5979C282.174 99.5575 284.211 104.747 284.014 110.397C283.964 111.677 284.391 112.975 284.556 114.289C284.736 115.849 285.081 117.425 284.966 118.969C283.784 133.865 277.773 146.247 266.047 155.789C259.035 161.488 251.579 166.496 243.63 170.668C239.295 172.951 234.778 174.954 229.884 176.137C225.007 177.303 220.376 179.47 215.58 181.063C212.887 181.967 210.144 182.821 207.352 183.346C199.897 184.742 192.424 185.99 184.935 187.205C178.219 188.289 171.502 189.455 164.736 190.178C156.393 191.065 147.984 191.426 139.642 192.247C131.841 193.019 124.073 194.054 116.289 195.072C111.887 195.647 107.453 196.189 103.118 197.092C98.0101 198.143 92.9355 199.375 87.943 200.853C80.0601 203.185 72.2593 205.747 64.4421 208.292C60.3528 209.623 56.3949 211.38 52.2564 212.513C43.7166 214.861 35.3082 217.637 26.3742 218.704C20.9055 219.361 15.486 219.903 10.0008 219.788C7.70161 219.739 5.41885 219.016 3.1361 218.54C1.14895 218.129 0.327816 216.651 0.262125 214.812C0.163589 212.02 0.245705 209.294 0.245705 206.092Z" fill="#F9F9F9"/>
<path d="M266.185 2.25346C265.906 1.00533 266.514 0.217043 267.795 0.20062C274.889 0.184197 282.05 -0.374185 289.046 0.446951C297.077 1.38304 304.122 5.19315 310.33 10.547C318.738 17.8222 326.867 25.3438 334.307 33.588C340.892 40.8961 346.41 48.9925 350.417 58.0086C352.7 63.1489 354.523 68.4863 354.72 74.2178C354.802 76.4677 355.492 78.422 356.872 80.3763C358.153 82.1992 358.924 84.679 359.072 86.9289C359.483 93.2024 361.585 99.3117 360.846 105.651C360.09 112.138 359.187 118.625 358.366 125.112C357.956 128.347 357.348 131.467 355.656 134.391C354.917 135.672 354.999 137.445 354.753 138.989C354.113 143.127 353.915 147.397 352.782 151.388C351.321 156.528 349.465 161.619 347.133 166.431C343.323 174.281 338.987 181.869 334.865 189.554C334.504 190.228 334.044 190.885 333.519 191.46C329.364 196.074 326.03 201.313 322.22 206.191C316.422 213.614 309.656 220.051 302.2 225.882C298.867 228.493 295.828 231.547 292.298 234.027C283.725 240.038 274.561 244.948 264.921 248.955C261.209 250.499 257.268 251.484 253.409 252.667C246.544 254.753 239.679 256.822 232.798 258.825C230.302 259.548 227.756 260.123 225.211 260.648C221.778 261.355 218.297 261.864 214.881 262.586C207.458 264.179 200.035 265.756 192.645 267.546C190.559 268.055 188.358 268.925 187.455 271.964C188.966 273.097 190.427 274.739 192.25 275.445C196.307 277.005 199.46 279.764 202.367 282.688C209.346 289.7 214.323 298.092 218.248 307.157C222.041 315.894 225.244 324.828 228.085 333.91C229.366 337.999 231.09 341.957 232.601 345.981C232.831 346.588 232.979 347.245 233.094 347.886C234.145 353.847 229.743 357.674 223.946 355.687C218.05 353.65 213.649 349.922 210.611 344.289C205.011 333.943 200.511 323.12 196.06 312.281C192.776 304.316 187.636 297.862 181.05 292.508C177.092 289.29 172.954 286.317 168.832 283.295C164.578 280.175 159.865 278.139 154.642 277.137C150.668 276.381 146.759 275.347 142.851 274.328C140.059 273.606 138.367 271.487 138.384 269.073C138.4 266.61 140.683 263.67 143.245 263.079C144.51 262.783 145.856 262.783 147.154 262.75C151.489 262.635 155.841 262.8 160.144 262.422C168.224 261.716 176.288 260.78 184.351 259.827C189.278 259.252 194.188 258.546 199.099 257.758C202.071 257.282 205.011 256.608 207.918 255.837C215.472 253.833 223.109 252.059 230.499 249.596C239.531 246.574 248.35 242.978 256.841 238.609C264.477 234.684 271.868 230.398 278.667 225.126C282.411 222.219 286.533 219.674 289.801 216.291C291.723 214.303 293.578 212.086 295.418 209.951C298.998 205.797 302.71 201.74 305.879 197.29C311.397 189.571 316.8 181.754 321.793 173.69C326.309 166.398 330.333 158.795 334.34 151.191C338.593 143.127 342.173 134.686 344.357 125.851C346.903 115.57 349.169 105.109 347.954 94.3849C346.706 83.316 344.423 72.5098 339.365 62.3934C334.126 51.9157 326.342 43.6716 317.884 35.8544C307.85 26.5755 296.502 19.2181 284.809 12.337C278.7 8.75688 272.41 5.62011 266.185 2.25346Z" fill="#F9F9F9"/>
<path d="M123.738 160.877C122.719 158.398 123.853 157.379 125.38 156.673C126.07 156.361 126.907 156.328 127.679 156.279C139.996 155.622 152.313 155.195 164.614 154.292C170.575 153.849 176.471 152.354 182.432 151.697C189.79 150.892 196.835 148.856 203.733 146.393C213.061 143.059 222.241 139.199 229.352 131.941C233.786 127.424 237.563 122.465 238.368 115.83C238.532 114.434 239.501 113.087 239.501 111.708C239.534 103.694 236.151 97.6828 227.299 96.911C222.734 96.5168 218.037 96.3526 213.537 97.0095C208.955 97.6664 204.422 99.1445 200.087 100.82C192.089 103.907 185.52 109.343 178.721 114.418C174.664 117.456 170.312 120.083 166.092 122.892C163.595 124.55 161.034 126.127 158.587 127.868C157.716 128.492 157.125 129.51 155.877 130.972C157.93 131.202 159.178 131.464 160.442 131.481C164.893 131.497 169.311 131.481 173.728 130.38C178.031 129.297 182.564 129.198 186.916 128.295C194.897 126.62 202.583 124.041 208.889 118.605C211.533 116.339 213.882 113.662 216.099 110.969C217.265 109.556 218.135 108.161 220.205 109.015C221.814 109.688 222.98 112.611 222.487 114.335C221.059 119.262 218.25 123.302 214.095 126.209C207.428 130.89 200.218 134.585 192.237 136.49C187.162 137.705 181.956 138.362 176.931 139.692C168.391 141.958 159.736 141.318 151.114 140.973C146.861 140.809 143.281 138.871 140.834 134.979C138.699 131.596 139.126 128.229 140.407 124.928C141.967 120.855 144.972 117.669 148.191 114.845C154.464 109.343 160.886 103.989 167.373 98.7339C172.644 94.464 178.015 90.2762 183.516 86.3183C188.607 82.6396 194.29 80.2747 200.464 78.6653C209.464 76.3169 218.234 77.7785 226.954 79.2894C232.275 80.2091 237.596 81.8185 242.211 85.0538C247.286 88.6011 250.866 92.9695 252.804 99.0952C254.413 104.17 254.824 109.212 254.232 114.22C253.526 120.297 251.605 126.176 248.468 131.579C242.474 141.909 233.08 148.051 222.537 152.682C215.508 155.786 208.167 157.938 200.596 159.531C195.111 160.68 189.609 161.699 184.091 162.651C171.659 164.835 159.211 164.063 146.795 163.571C139.011 163.193 131.259 161.764 123.738 160.877Z" fill="#F9F9F9"/>
<path d="M352.439 224.681C353.146 225.946 353.852 226.701 353.983 227.522C355.067 234.206 356.43 240.792 355.28 247.722C353.819 256.459 349.023 263.012 343.308 269.318C337.101 276.183 331.435 283.54 325.161 290.339C321.302 294.527 316.736 298.074 312.483 301.901C309.1 304.939 305.011 307.32 303.04 311.639C301.94 314.07 300.708 316.681 300.576 319.276C300.149 327.142 300.149 335.025 300.133 342.908C300.133 344.698 300.494 346.554 300.987 348.295C301.989 351.842 299.64 355.439 295.896 355.981C292.464 356.473 289.343 355.242 286.502 353.764C281.05 350.939 277.798 346.226 275.844 340.346C274.251 335.534 273.955 330.575 273.348 325.697C272.674 320.393 274.267 315.137 275.532 309.915C277.125 303.313 280.787 298.091 285.221 293.279C287.422 290.898 289.852 288.615 292.546 286.825C299.509 282.177 304.666 275.756 310.151 269.663C317.114 261.928 323.995 254.144 330.975 246.408C335.163 241.777 339.465 237.261 343.653 232.63C345.542 230.528 348.137 229.165 349.582 226.57C349.96 225.798 351.191 225.469 352.439 224.681Z" fill="#F9F9F9"/>
<path d="M27.523 251.042C23.056 251.042 18.6055 251.091 14.1385 251.025C9.78649 250.959 5.97643 249.399 2.70831 246.525C0.934656 244.965 -0.297046 243.126 0.277748 240.712C0.852543 238.347 2.72473 236.918 4.99106 236.507C7.4052 236.064 9.95072 235.785 12.3813 236.08C18.7533 236.836 25.0432 235.883 31.0867 234.438C37.0975 233.009 42.7304 229.988 48.6426 228.001C55.688 225.652 62.8318 223.616 69.9593 221.53C73.3259 220.545 76.7419 219.707 80.1414 218.837C80.8968 218.64 81.6851 218.541 82.457 218.459C89.6009 217.736 96.5969 216.521 103.396 214.025C107.518 212.497 111.903 211.676 116.189 210.56C121.74 209.131 127.291 207.669 132.875 206.339C138.261 205.058 143.73 204.418 149.248 205.255C150.89 205.501 152.582 206.06 153.994 206.914C156.622 208.507 156.704 210.051 154.126 211.627C151.137 213.45 148 215.224 144.699 216.324C135.584 219.362 126.306 221.924 117.175 224.913C110.491 227.097 103.856 229.528 97.3195 232.123C88.8782 235.489 80.6012 239.266 72.1435 242.6C66.0835 244.998 59.9743 247.445 53.6844 249.005C48.1335 250.368 42.3035 250.647 36.5719 251.189C33.583 251.469 30.5448 251.239 27.523 251.239C27.523 251.173 27.523 251.107 27.523 251.042Z" fill="#F9F9F9"/>
<path d="M10.6749 259.203C14.6492 259.958 18.7056 260.401 22.5649 261.518C30.0865 263.702 37.1975 266.872 43.8159 271.158C49.9744 275.133 54.4414 280.7 58.6292 286.53C62.9483 292.524 67.0704 298.65 71.3403 304.677C73.6724 307.978 76.1029 311.213 78.5171 314.449C80.5042 317.109 83.0169 319.129 86.1044 320.344C93.0348 323.071 99.8994 326.01 106.961 328.342C114.795 330.921 121.577 335.141 127.752 340.38C131.02 343.156 133.944 346.358 136.916 349.478C137.688 350.283 138.181 351.465 138.476 352.566C139.002 354.602 138.049 355.834 135.914 355.949C130.856 356.228 126.192 354.98 121.709 352.599C115.402 349.248 108.998 346.062 102.511 343.041C95.4653 339.74 88.19 336.948 81.2432 333.499C74.2472 330.017 68.8441 324.647 64.3936 318.16C61.5524 314.005 58.1858 310.129 54.6549 306.516C48.0365 299.717 41.4182 292.853 34.2743 286.645C27.4096 280.684 19.2968 276.758 10.0837 275.658C6.89765 275.28 4.38498 273.605 2.26645 271.52C0.246457 269.533 -0.640369 266.675 0.509221 263.932C1.64239 261.206 4.28644 260.089 7.0783 259.597C8.22789 259.4 9.42675 259.564 10.6092 259.564C10.642 259.416 10.6585 259.318 10.6749 259.203Z" fill="#F9F9F9"/>
<path d="M355.889 190.903C355.363 195.206 355.363 199.541 354.181 203.532C353.212 206.767 351.159 209.855 349.008 212.532C345.838 216.473 342.094 219.955 338.694 223.699C337.643 224.849 337.019 226.376 335.968 227.526C332.092 231.73 328.25 235.983 324.144 239.958C316.277 247.578 308.362 255.149 300.249 262.506C296.784 265.643 292.826 268.287 288.966 270.947C281.412 276.137 273.053 279.586 264.398 282.509C260.457 283.839 256.745 285.892 253.017 287.781C250.192 289.193 248.813 291.262 249.421 294.793C250.734 302.265 251.605 309.787 254.019 317.079C255.809 322.498 256.417 328.295 257.73 333.879C258.979 339.2 260.457 344.472 261.82 349.76C262.05 350.647 262.345 351.501 262.493 352.404C262.739 353.865 262.165 355.212 260.834 355.623C259.882 355.918 258.322 355.754 257.648 355.13C255.858 353.471 253.888 351.681 252.935 349.53C250.899 344.866 249.388 339.972 247.811 335.127C244.724 325.586 242.096 315.913 237.071 307.094C235.215 303.842 233.934 300.229 232.62 296.698C229.828 289.226 233.359 279.75 240.306 274.971C243.935 272.475 247.992 270.75 252.229 269.42C261.688 266.447 271.099 263.343 280.476 260.157C294.731 255.313 306.375 246.527 316.918 236.049C320.038 232.945 323.684 230.367 326.739 227.23C333.144 220.644 339.598 214.108 345.116 206.669C348.318 202.35 350.141 197.488 352.637 192.89C353.229 191.757 353.442 190.18 355.889 190.903Z" fill="#F9F9F9"/>
<path d="M179.595 0.357095C166.867 3.95367 154.041 6.4171 141.888 11.1633C127.19 16.9112 113.526 24.4492 102.851 36.405C95.7404 44.3535 89.0892 52.7127 82.0438 60.7434C74.046 69.858 64.9806 77.8394 55.4226 85.3118C45.9631 92.702 36.1588 99.5667 25.9438 105.807C20.9513 108.862 15.7946 111.72 10.5229 114.265C8.65073 115.168 6.08879 115.349 4.0031 114.988C0.0945 114.298 -0.496721 112.048 0.554332 107.696C1.34262 104.444 3.18197 101.455 6.05594 99.4024C8.66715 97.5303 11.2291 95.5267 14.0538 93.9994C26.4694 87.2825 38.4744 79.958 49.0013 70.4821C55.8824 64.2907 62.5336 57.8859 69.3819 51.6617C78.5458 43.3189 87.7589 35.0419 98.2859 28.3742C109.519 21.2632 120.867 14.3493 132.774 8.40426C137.405 6.08866 142.102 3.77303 146.996 2.11434C150.527 0.915479 154.402 0.47209 158.147 0.29144C164.042 -0.0205917 169.955 0.16003 175.85 0.16003C177.098 0.127185 178.347 0.274981 179.595 0.357095Z" fill="#F9F9F9"/>
<path d="M99.7099 2.96224C98.5768 4.32533 97.575 5.88549 96.2448 7.06792C89.495 13.0294 82.5154 18.7281 75.9135 24.8537C70.6582 29.7149 65.6985 34.9208 60.8867 40.2254C53.7921 48.0426 45.7285 54.4803 36.5975 59.7848C27.68 64.9744 18.3026 69.1951 8.9745 73.5142C4.4911 75.5835 0.61534 72.7916 0.204773 67.7499C-0.517826 58.8487 3.45647 52.4931 10.9452 48.0919C15.987 45.1194 21.3244 42.6067 26.1198 39.2893C31.8021 35.3643 37.2051 31.0122 42.4276 26.4796C51.0987 18.9744 59.4907 11.1408 68.0634 3.52066C70.691 1.18864 73.8278 0.0883192 77.4243 0.137587C82.9259 0.219701 88.444 0.0718805 93.962 0.121149C95.9984 0.153994 98.2483 -0.0759561 99.7099 2.96224Z" fill="#F9F9F9"/>
<path d="M80.4425 356.116C76.0576 356.116 72.034 356.116 68.0105 356.116C49.9126 356.099 31.7984 356.165 13.7006 356.001C10.0876 355.968 6.44174 355.229 2.92728 354.375C1.89265 354.129 0.677362 352.486 0.480289 351.337C0.0697217 348.906 0.151836 346.377 0.250372 343.881C0.332486 342.009 2.0076 340.219 4.09329 340.054C5.99832 339.907 8.03474 340.038 9.87408 340.563C13.6513 341.615 17.3136 343.076 21.0579 344.226C22.2732 344.603 23.6527 344.718 24.9173 344.571C26.8552 344.341 27.4956 342.715 26.3132 341.138C25.722 340.334 24.7366 339.824 23.9483 339.168C18.6438 334.733 13.1258 330.529 8.10043 325.816C3.14077 321.152 0.00403312 315.371 0.16826 308.244C0.217528 306.01 0.102565 303.777 0.266792 301.56C0.348906 300.279 0.660939 298.965 1.15362 297.782C2.23752 295.27 2.9437 295.04 5.32499 296.37C15.8684 302.216 25.3278 309.59 34.3768 317.506C40.0754 322.499 44.5588 328.575 49.617 334.159C52.803 337.69 56.7281 340.728 60.7681 343.273C65.8262 346.459 71.3771 348.84 76.6324 351.714C78.1597 352.519 80.1304 353.094 80.4425 356.116Z" fill="#F9F9F9"/>
<path d="M343.782 355.592C336.391 356.971 330.249 355.772 326.029 349.729C324.666 347.791 323.959 345.18 323.631 342.782C322.892 337.51 323.795 332.337 325.634 327.345C327.26 322.927 328.903 318.509 330.413 314.059C333.797 304.041 339.15 295.255 346.754 287.914C347.854 286.846 349.267 285.976 350.696 285.401C353.52 284.268 355.507 285.45 355.507 288.456C355.491 293.038 355.031 297.652 352.404 301.627C348.249 307.933 345.818 314.83 344.307 322.204C343.355 326.918 341.778 331.483 340.513 336.147C339.643 339.399 338.608 342.634 338.083 345.952C337.574 349.187 339.085 351.716 341.942 353.44C342.616 353.834 343.026 354.688 343.782 355.592Z" fill="#F9F9F9"/>
<path d="M47.583 0.691396C46.4827 1.5618 45.6944 2.39932 44.7419 2.90842C37.171 6.99767 29.5837 11.0541 21.9636 15.0613C17.3488 17.4918 12.7012 19.8403 8.02072 22.1394C4.63764 23.7981 0.548389 21.4661 0.25278 17.6396C0.0721302 15.2911 0.0885524 12.8934 0.367738 10.5614C0.663347 8.19654 1.5666 6.09447 3.86578 4.74781C6.70691 3.08911 9.66299 2.10372 12.8983 1.38112C23.9672 -1.06586 35.1346 0.724211 46.2364 0.198684C46.5648 0.182262 46.9097 0.428632 47.583 0.691396Z" fill="#F9F9F9"/>
</svg>
