<svg width="30" height="30" viewBox="0 0 30 30" fill="none" xmlns="http://www.w3.org/2000/svg">
<path fill-rule="evenodd" clip-rule="evenodd" d="M10.956 17.5H20.4785L24.2285 10H8.90971L10.956 17.5ZM24.2273 7.5C25.0998 7.5 25.8948 7.9425 26.3535 8.685C26.8123 9.4275 26.8548 10.3363 26.4635 11.1175L22.3685 19.3087C22.156 19.7325 21.7235 20 21.2498 20H9.99976C9.43601 20 8.94226 19.6225 8.79351 19.0787L5.29476 6.25H3.74976C3.05851 6.25 2.49976 5.69 2.49976 5C2.49976 4.31 3.05851 3.75 3.74976 3.75H6.24976C6.81351 3.75 7.30726 4.1275 7.45601 4.67125L8.22726 7.5H24.2273ZM9.37496 22.5C8.33996 22.5 7.49996 23.3388 7.49996 24.375C7.49996 25.4112 8.33996 26.25 9.37496 26.25C10.41 26.25 11.25 25.4112 11.25 24.375C11.25 23.3388 10.41 22.5 9.37496 22.5ZM21.875 22.5C20.84 22.5 20 23.3388 20 24.375C20 25.4112 20.84 26.25 21.875 26.25C22.91 26.25 23.75 25.4112 23.75 24.375C23.75 23.3388 22.91 22.5 21.875 22.5Z" fill="black"/>
<mask id="mask0" mask-type="alpha" maskUnits="userSpaceOnUse" x="2" y="3" width="25" height="24">
<path fill-rule="evenodd" clip-rule="evenodd" d="M10.956 17.5H20.4785L24.2285 10H8.90971L10.956 17.5ZM24.2273 7.5C25.0998 7.5 25.8948 7.9425 26.3535 8.685C26.8123 9.4275 26.8548 10.3363 26.4635 11.1175L22.3685 19.3087C22.156 19.7325 21.7235 20 21.2498 20H9.99976C9.43601 20 8.94226 19.6225 8.79351 19.0787L5.29476 6.25H3.74976C3.05851 6.25 2.49976 5.69 2.49976 5C2.49976 4.31 3.05851 3.75 3.74976 3.75H6.24976C6.81351 3.75 7.30726 4.1275 7.45601 4.67125L8.22726 7.5H24.2273ZM9.37496 22.5C8.33996 22.5 7.49996 23.3388 7.49996 24.375C7.49996 25.4112 8.33996 26.25 9.37496 26.25C10.41 26.25 11.25 25.4112 11.25 24.375C11.25 23.3388 10.41 22.5 9.37496 22.5ZM21.875 22.5C20.84 22.5 20 23.3388 20 24.375C20 25.4112 20.84 26.25 21.875 26.25C22.91 26.25 23.75 25.4112 23.75 24.375C23.75 23.3388 22.91 22.5 21.875 22.5Z" fill="white"/>
</mask>
<g mask="url(#mask0)">
<rect width="30" height="30" fill="black"/>
</g>
</svg>
