<svg width="121" height="52" viewBox="0 0 121 52" fill="none" xmlns="http://www.w3.org/2000/svg">
<path d="M32.3924 1.16645C33.8005 1.1427 35.0613 1.2638 36.2865 1.65558C37.0772 1.90727 37.8156 2.26819 38.5185 2.71933C39.6368 3.4364 40.6555 4.26983 41.5554 5.24335C43.0869 6.90307 44.4142 8.71001 45.4209 10.7354C45.9932 11.8894 46.3897 13.0956 46.5393 14.3896C46.6058 14.9714 46.7934 15.5555 46.6841 16.1349C46.506 17.0846 46.5345 18.051 46.3208 19.0008C46.0929 20.0147 45.8175 21.0024 45.4186 21.9593C44.9009 23.1988 44.2788 24.3812 43.4786 25.4592C43.0299 26.0647 42.5811 26.6797 42.0516 27.2116C41.4153 27.8503 40.6578 28.3655 40.0167 28.9995C39.0931 29.9137 37.9557 30.455 36.8041 30.975C36.2651 31.2196 35.6834 31.3716 35.123 31.5686C35.0352 31.5995 34.9521 31.6399 34.8713 31.685C34.3228 31.9984 33.7197 32.1456 33.1071 32.2572C32.9955 32.2762 32.8673 32.281 32.7818 32.3403C32.0956 32.8128 31.2788 32.9577 30.5166 33.2355C29.1751 33.7246 27.8145 34.1591 26.454 34.5913C25.8081 34.7955 25.1433 34.9332 24.4927 35.1184C23.8754 35.2917 23.2675 35.4936 22.6525 35.6669C21.546 35.9756 20.4324 36.2676 19.326 36.5763C18.3263 36.8541 17.3338 37.1557 16.3366 37.4311C15.9187 37.5475 15.4913 37.6306 15.0639 37.716C14.6483 37.8015 14.2708 37.9582 13.9526 38.2455C13.7935 38.3904 13.7864 38.5352 13.9384 38.6848C14.0334 38.7774 14.126 38.8795 14.2399 38.9436C14.8312 39.2737 15.4319 39.5847 16.0208 39.9171C17.5713 40.7957 19.2096 41.5151 20.658 42.586C21.7336 43.3814 22.8045 44.1745 23.7994 45.0768C25.0626 46.2212 26.1881 47.4892 27.2257 48.8379C27.513 49.213 27.7789 49.6048 28.0544 49.9895C28.0757 50.0203 28.1066 50.0464 28.1256 50.0797C28.2847 50.3931 28.5506 50.6899 28.3227 51.077C28.1137 51.4355 27.7742 51.502 27.3943 51.4877C26.9574 51.4735 26.5205 51.4996 26.0836 51.4735C24.9676 51.4094 24.0131 51.0057 23.2343 50.1699C21.9473 48.7904 20.5607 47.5058 19.0814 46.3352C17.9417 45.4329 16.6713 44.7254 15.363 44.0914C14.1117 43.4859 12.8556 42.8804 11.7658 42.0043C10.8801 41.2943 10.0681 40.5107 9.60742 39.4304C9.15628 38.3714 9.1729 37.3385 9.71427 36.3223C9.93034 35.9186 10.2509 35.6479 10.7282 35.6028C11.2007 35.5577 11.6732 35.5149 12.1433 35.4603C13.1026 35.344 14.0642 35.2561 15.014 35.0899C15.9614 34.9261 16.8945 34.6863 17.8301 34.4678C18.5424 34.3016 19.2618 34.152 19.9599 33.9383C20.7839 33.6843 21.5912 33.3827 22.3985 33.0788C23.4765 32.6728 24.5521 32.262 25.6134 31.818C26.6487 31.3858 27.6744 30.9252 28.6907 30.4455C29.4885 30.0704 30.246 29.5979 31.058 29.2631C32.1859 28.8001 33.2805 28.2729 34.3418 27.6841C35.5101 27.0359 36.6688 26.352 37.7586 25.5803C38.6039 24.9844 39.3068 24.2055 39.9408 23.3721C40.9618 22.0306 41.648 20.5323 42.1727 18.9462C42.7402 17.2295 42.9159 15.4581 42.7022 13.6773C42.536 12.3001 42.0136 11.0108 41.2894 9.81649C40.3705 8.29923 39.1762 7.00754 37.7871 5.9343C35.8116 4.40754 33.5725 3.97778 31.1411 4.64974C30.6306 4.78983 30.1035 4.86581 29.5859 4.98216C29.1608 5.07714 28.7382 5.17686 28.3179 5.28608C27.862 5.40243 27.4156 5.55202 26.955 5.647C26.4208 5.75859 25.8723 5.80371 25.3404 5.92005C24.6993 6.06014 24.0511 6.20498 23.4337 6.42343C21.9473 6.94581 20.5868 7.70088 19.3663 8.71238C17.9797 9.85923 16.726 11.1296 15.5672 12.502C14.5581 13.6987 13.5513 14.8978 12.4781 16.0375C11.3146 17.2722 10.0514 18.4072 8.70514 19.4472C7.47756 20.3946 6.18349 21.2328 4.7992 21.9237C3.85655 22.3938 2.86642 22.7548 1.84304 23.0231C1.75281 23.0468 1.66733 23.0896 1.57947 23.1228C0.803036 23.4125 0.0883328 22.9162 0.0360954 22.0875C-0.0137677 21.2969 0.397008 20.7175 0.874269 20.1833C1.13071 19.8959 1.48212 19.6822 1.81692 19.4757C3.6476 18.3478 5.49966 17.2508 7.10715 15.8072C8.31098 14.7244 9.43171 13.5586 10.4788 12.3191C11.184 11.4857 11.894 10.657 12.6277 9.84736C13.3733 9.02343 14.1378 8.21375 14.9166 7.41832C16.422 5.87969 18.1269 4.62599 20.1238 3.78307C21.3418 3.26782 22.5979 2.88078 23.8896 2.60298C24.6945 2.42964 25.4852 2.18983 26.2878 1.9975C26.7271 1.89302 27.1782 1.82417 27.6222 1.74106C29.2368 1.43476 30.8562 1.10471 32.3924 1.16645Z" fill="black"/>
<path d="M0.0365127 29.7969C0.468659 29.7969 0.810576 29.7518 1.13825 29.804C2.35633 29.9987 3.5198 29.8278 4.62154 29.2935C5.24601 28.992 5.84911 28.6429 6.4451 28.2915C7.32126 27.7763 8.16656 27.2064 9.1282 26.8526C9.99249 26.5344 10.8497 26.1925 11.7282 25.9195C12.2292 25.7651 12.7658 25.7176 13.2882 25.644C16.6148 25.1786 19.9556 25.4826 23.2917 25.4873C24.676 25.4897 26.0626 25.4659 27.4445 25.3781C28.1711 25.333 28.8882 25.124 29.6077 24.9887C30.1063 24.8961 30.6192 24.8391 31.1035 24.699C31.8467 24.4853 32.5971 24.2669 33.2999 23.9534C34.2259 23.5427 35.1329 23.0725 36.0115 22.5668C37.1963 21.8806 38.215 20.983 38.9344 19.8077C39.3357 19.1523 39.6634 18.4281 39.6776 17.6303C39.6895 16.9109 39.7465 16.1701 39.6064 15.4743C39.4378 14.6267 39.1054 13.8051 38.6139 13.0714C37.5644 11.4972 36.2276 10.2791 34.4064 9.64512C33.535 9.3412 32.6469 9.14175 31.7375 9.26284C30.8827 9.37682 30.0256 9.5074 29.1945 9.77809C27.3401 10.3836 25.7112 11.3737 24.156 12.5324C21.6343 14.4106 19.4878 16.6853 17.2867 18.9078C16.0924 20.114 14.9147 21.3439 13.6396 22.4647C12.1675 23.7587 10.5529 24.8842 8.80765 25.796C7.70829 26.3706 6.57806 26.8716 5.40035 27.28C4.43158 27.6148 3.46044 27.8902 2.44893 28.0422C2.09514 28.0968 1.75085 28.2274 1.39706 28.244C0.60875 28.2796 0.0840012 27.7003 0.0151428 26.9191C-0.0632134 26.0002 0.596878 25.2546 1.23797 25.0219C1.65825 24.8676 2.12126 24.8415 2.56528 24.7489C3.67176 24.5209 4.783 24.3286 5.81112 23.8157C6.51633 23.4643 7.26428 23.1912 7.97186 22.8446C9.14007 22.2723 10.2014 21.5291 11.2509 20.7598C13.2787 19.2711 15.0785 17.5259 16.8926 15.7996C17.8329 14.9045 18.7138 13.95 19.6659 13.0691C21.0811 11.7607 22.5817 10.5498 24.2438 9.56677C24.9205 9.16549 25.6613 8.85919 26.3974 8.57188C27.2332 8.24659 28.0833 7.93316 28.9523 7.71471C30.3936 7.3538 31.8776 7.18759 33.3474 7.4559C34.6319 7.69097 35.7883 8.28932 36.8402 9.08001C38.4595 10.2981 39.699 11.8201 40.492 13.6769C40.7983 14.394 41.0928 15.1443 41.0643 15.9611C41.0571 16.1463 41.1189 16.3339 41.1426 16.5238C41.1687 16.7494 41.2186 16.9774 41.202 17.2006C41.031 19.3542 40.162 21.1445 38.4666 22.524C37.4528 23.348 36.3748 24.0722 35.2256 24.6753C34.5987 25.0053 33.9457 25.295 33.2382 25.4659C32.533 25.6345 31.8634 25.948 31.17 26.1783C30.7806 26.3089 30.3841 26.4323 29.9804 26.5083C28.9024 26.7101 27.8221 26.8906 26.7393 27.0663C25.7682 27.223 24.7971 27.3916 23.8188 27.4961C22.6126 27.6243 21.3969 27.6765 20.1907 27.7953C19.0628 27.9069 17.9397 28.0564 16.8142 28.2037C16.1779 28.2868 15.5368 28.3651 14.9099 28.4957C14.1715 28.6477 13.4378 28.8258 12.716 29.0395C11.5762 29.3766 10.4484 29.747 9.31816 30.1151C8.72692 30.3074 8.15469 30.5615 7.55633 30.7253C6.32163 31.0648 5.10592 31.4661 3.81423 31.6205C3.02354 31.7154 2.23998 31.7938 1.44692 31.7772C1.1145 31.7701 0.784457 31.6656 0.454412 31.5967C0.167106 31.5374 0.0483844 31.3237 0.0388867 31.0577C0.0246402 30.6541 0.0365127 30.2599 0.0365127 29.7969Z" fill="black"/>
<path d="M38.4854 0.32581C38.445 0.145353 38.5329 0.0313805 38.7181 0.029006C39.7438 0.0266316 40.7791 -0.0541004 41.7906 0.064621C42.9517 0.199963 43.9703 0.750837 44.8679 1.5249C46.0836 2.57677 47.2589 3.66426 48.3345 4.85622C49.2867 5.91285 50.0845 7.08344 50.6638 8.387C50.9939 9.1302 51.2574 9.90188 51.2859 10.7306C51.2978 11.0559 51.3975 11.3384 51.597 11.621C51.7822 11.8845 51.8938 12.2431 51.9152 12.5684C51.9745 13.4754 52.2785 14.3587 52.1716 15.2752C52.0624 16.2131 51.9318 17.151 51.8131 18.0889C51.7537 18.5567 51.6658 19.0078 51.4213 19.4305C51.3144 19.6157 51.3263 19.8721 51.2907 20.0953C51.1981 20.6937 51.1696 21.311 51.0058 21.888C50.7944 22.6312 50.5261 23.3673 50.189 24.063C49.6381 25.198 49.0112 26.2949 48.4153 27.4062C48.363 27.5035 48.2965 27.5985 48.2206 27.6816C47.6198 28.3488 47.1378 29.1063 46.5869 29.8115C45.7488 30.8847 44.7705 31.8155 43.6925 32.6584C43.2105 33.0359 42.7712 33.4776 42.2607 33.8361C41.0213 34.7052 39.6964 35.4151 38.3026 35.9945C37.7659 36.2177 37.1961 36.3601 36.6381 36.5311C35.6456 36.8327 34.6531 37.1318 33.6582 37.4215C33.2973 37.526 32.9292 37.6091 32.5612 37.6851C32.0649 37.7872 31.5616 37.8608 31.0677 37.9653C29.9944 38.1956 28.9212 38.4235 27.8527 38.6823C27.5511 38.7559 27.233 38.8818 27.1024 39.3211C27.3208 39.4849 27.5322 39.7223 27.7957 39.8244C28.3822 40.05 28.8381 40.4489 29.2584 40.8716C30.2675 41.8854 30.9869 43.0988 31.5544 44.4095C32.1029 45.6727 32.5659 46.9643 32.9767 48.2774C33.1619 48.8686 33.4112 49.4409 33.6297 50.0226C33.6629 50.1105 33.6843 50.2054 33.7009 50.298C33.8529 51.16 33.2165 51.7132 32.3784 51.4259C31.5259 51.1315 30.8896 50.5925 30.4503 49.778C29.6406 48.2822 28.9901 46.7174 28.3466 45.1503C27.8717 43.9987 27.1285 43.0655 26.1764 42.2915C25.6041 41.8261 25.0058 41.3963 24.4098 40.9594C23.7948 40.5083 23.1133 40.2138 22.3583 40.069C21.7837 39.9598 21.2185 39.8102 20.6534 39.663C20.2498 39.5585 20.0052 39.2522 20.0076 38.9032C20.01 38.547 20.34 38.122 20.7104 38.0365C20.8932 37.9938 21.088 37.9938 21.2755 37.989C21.9024 37.9724 22.5316 37.9961 23.1537 37.9415C24.3219 37.8394 25.4878 37.7041 26.6536 37.5664C27.3659 37.4832 28.0759 37.3812 28.7859 37.2672C29.2156 37.1983 29.6406 37.101 30.0609 36.9894C31.1532 36.6997 32.2573 36.4433 33.3258 36.0871C34.6317 35.6502 35.9068 35.1302 37.1343 34.4986C38.2385 33.9311 39.3069 33.3114 40.29 32.5492C40.8313 32.1289 41.4273 31.7609 41.8998 31.2717C42.1776 30.9844 42.4459 30.6639 42.7119 30.3552C43.2295 29.7545 43.7661 29.168 44.2244 28.5245C45.0222 27.4086 45.8034 26.2783 46.5252 25.1125C47.1782 24.0582 47.7599 22.9589 48.3393 21.8595C48.9543 20.6937 49.4719 19.4732 49.7877 18.1958C50.1557 16.7094 50.4834 15.1969 50.3077 13.6464C50.1272 12.046 49.7972 10.4836 49.0658 9.02097C48.3084 7.50608 47.1829 6.31413 45.9601 5.1839C44.5093 3.84234 42.8686 2.7786 41.178 1.78371C40.2947 1.26609 39.3853 0.812568 38.4854 0.32581Z" fill="black"/>
<path d="M17.8912 23.2602C17.744 22.9017 17.9078 22.7545 18.1286 22.6524C18.2284 22.6073 18.3495 22.6025 18.4611 22.5954C20.2419 22.5004 22.0227 22.4387 23.8011 22.3081C24.6631 22.244 25.5155 22.0279 26.3774 21.9329C27.4411 21.8166 28.4598 21.5222 29.457 21.166C30.8057 20.684 32.133 20.126 33.1611 19.0765C33.8022 18.4235 34.3484 17.7064 34.4647 16.7472C34.4885 16.5453 34.6285 16.3506 34.6285 16.1512C34.6333 14.9925 34.1442 14.1234 32.8643 14.0118C32.2043 13.9548 31.5252 13.9311 30.8746 14.0261C30.2121 14.1211 29.5568 14.3348 28.9299 14.5769C27.7736 15.0233 26.8238 15.8093 25.8408 16.543C25.2543 16.9822 24.6251 17.3622 24.0148 17.7682C23.6539 18.008 23.2835 18.2359 22.9297 18.4876C22.8039 18.5779 22.7184 18.7251 22.538 18.9364C22.8348 18.9696 23.0152 19.0076 23.198 19.01C23.8415 19.0124 24.4802 19.01 25.119 18.8509C25.7411 18.6942 26.3964 18.68 27.0256 18.5494C28.1796 18.3072 29.2908 17.9344 30.2026 17.1485C30.5849 16.8208 30.9244 16.4337 31.245 16.0443C31.4136 15.8401 31.5394 15.6383 31.8386 15.7618C32.0713 15.8591 32.2399 16.2818 32.1686 16.5311C31.9621 17.2434 31.556 17.8275 30.9553 18.2478C29.9913 18.9245 28.9489 19.4588 27.7949 19.7342C27.0612 19.9099 26.3085 20.0049 25.582 20.1972C24.3473 20.5249 23.0959 20.4323 21.8494 20.3824C21.2344 20.3587 20.7168 20.0785 20.363 19.5158C20.0543 19.0266 20.116 18.5399 20.3012 18.0626C20.5268 17.4737 20.9613 17.0131 21.4267 16.6047C22.3338 15.8093 23.2622 15.0352 24.2001 14.2754C24.9622 13.658 25.7387 13.0526 26.5341 12.4803C27.2702 11.9484 28.0917 11.6065 28.9845 11.3738C30.2857 11.0343 31.5537 11.2456 32.8145 11.4641C33.5838 11.597 34.3531 11.8297 35.0203 12.2975C35.754 12.8104 36.2717 13.442 36.5518 14.3276C36.7845 15.0613 36.8439 15.7903 36.7584 16.5145C36.6563 17.393 36.3785 18.2431 35.925 19.0242C35.0583 20.5178 33.7001 21.4058 32.1758 22.0754C31.1595 22.5242 30.0981 22.8352 29.0035 23.0655C28.2105 23.2317 27.415 23.379 26.6172 23.5167C24.8198 23.8325 23.02 23.7209 21.2249 23.6496C20.0994 23.595 18.9787 23.3884 17.8912 23.2602Z" fill="black"/>
<path d="M50.9557 32.4849C51.0578 32.6677 51.1599 32.7769 51.1789 32.8956C51.3356 33.862 51.5327 34.8142 51.3665 35.8162C51.1551 37.0794 50.4618 38.0268 49.6355 38.9386C48.738 39.9311 47.9188 40.9948 47.0118 41.9778C46.4538 42.5833 45.7937 43.0962 45.1787 43.6494C44.6896 44.0887 44.0983 44.433 43.8134 45.0575C43.6543 45.4089 43.4762 45.7864 43.4572 46.1616C43.3955 47.2989 43.3955 48.4387 43.3931 49.5784C43.3931 49.8372 43.4454 50.1055 43.5166 50.3572C43.6614 50.8701 43.3219 51.3901 42.7805 51.4684C42.2843 51.5397 41.8331 51.3616 41.4223 51.1479C40.634 50.7395 40.1639 50.058 39.8813 49.208C39.651 48.5123 39.6083 47.7952 39.5204 47.09C39.4231 46.323 39.6534 45.5632 39.8362 44.8081C40.0665 43.8536 40.596 43.0986 41.2371 42.4029C41.5553 42.0586 41.9067 41.7285 42.2961 41.4697C43.3029 40.7977 44.0485 39.8693 44.8415 38.9884C45.8483 37.8701 46.8432 36.7446 47.8523 35.6262C48.4578 34.9566 49.0799 34.3037 49.6854 33.6341C49.9584 33.3302 50.3336 33.1331 50.5425 32.7579C50.5971 32.6463 50.7752 32.5988 50.9557 32.4849Z" fill="black"/>
<path d="M3.98008 36.2961C3.33423 36.2961 2.69076 36.3032 2.04492 36.2937C1.4157 36.2842 0.864828 36.0587 0.392316 35.6431C0.135878 35.4176 -0.0422039 35.1516 0.0409011 34.8026C0.124006 34.4607 0.394691 34.2541 0.722362 34.1947C1.0714 34.1306 1.43944 34.0903 1.79086 34.133C2.71213 34.2422 3.62154 34.1045 4.49533 33.8956C5.36437 33.689 6.1788 33.2521 7.03359 32.9648C8.05222 32.6252 9.0851 32.3308 10.1156 32.0293C10.6024 31.8868 11.0962 31.7657 11.5877 31.6398C11.697 31.6114 11.8109 31.5971 11.9225 31.5852C12.9554 31.4808 13.9669 31.3051 14.9499 30.9441C15.5459 30.7233 16.1799 30.6046 16.7996 30.4431C17.6022 30.2366 18.4047 30.0252 19.212 29.8329C19.9909 29.6477 20.7815 29.5551 21.5793 29.6762C21.8168 29.7118 22.0614 29.7925 22.2656 29.916C22.6455 30.1463 22.6573 30.3695 22.2846 30.5975C21.8524 30.861 21.3989 31.1175 20.9216 31.2766C19.6038 31.7158 18.2623 32.0862 16.9421 32.5184C15.9757 32.8342 15.0164 33.1856 14.0714 33.5608C12.8509 34.0475 11.6542 34.5936 10.4314 35.0756C9.55524 35.4223 8.67195 35.7761 7.76254 36.0017C6.95999 36.1988 6.11706 36.2391 5.28839 36.3175C4.85624 36.3578 4.41697 36.3246 3.98008 36.3246C3.98008 36.3151 3.98008 36.3056 3.98008 36.2961Z" fill="black"/>
<path d="M1.5434 37.4758C2.11801 37.5851 2.70449 37.6492 3.26248 37.8106C4.34997 38.1264 5.3781 38.5847 6.33499 39.2044C7.22541 39.779 7.87125 40.584 8.47673 41.4269C9.1012 42.2935 9.69719 43.1792 10.3145 44.0506C10.6517 44.5279 11.0031 44.9956 11.3522 45.4634C11.6395 45.8481 12.0028 46.1401 12.4492 46.3158C13.4512 46.71 14.4437 47.135 15.4647 47.4722C16.5973 47.845 17.5779 48.4552 18.4707 49.2126C18.9432 49.6139 19.3659 50.0769 19.7956 50.5281C19.9072 50.6444 19.9785 50.8154 20.0212 50.9745C20.0972 51.2689 19.9595 51.447 19.6508 51.4636C18.9195 51.504 18.2451 51.3235 17.5969 50.9792C16.6851 50.4948 15.7591 50.0342 14.8212 49.5973C13.8026 49.12 12.7507 48.7164 11.7463 48.2177C10.7348 47.7144 9.95362 46.9379 9.31015 46C8.89938 45.3993 8.41262 44.8389 7.90212 44.3166C6.94522 43.3335 5.98833 42.341 4.95545 41.4435C3.96294 40.5816 2.78997 40.0141 1.45792 39.855C0.997277 39.8004 0.633989 39.5582 0.327688 39.2567C0.0356333 38.9693 -0.0925858 38.5562 0.0736242 38.1597C0.23746 37.7655 0.619743 37.604 1.0234 37.5328C1.18961 37.5043 1.36294 37.5281 1.5339 37.5281C1.53865 37.5067 1.54102 37.4925 1.5434 37.4758Z" fill="black"/>
<path d="M51.4552 27.6011C51.3792 28.2232 51.3792 28.8501 51.2082 29.4271C51.0682 29.8948 50.7714 30.3412 50.4603 30.7283C50.002 31.2981 49.4607 31.8015 48.9692 32.3429C48.8172 32.5091 48.727 32.7299 48.575 32.8961C48.0146 33.504 47.459 34.119 46.8654 34.6936C45.7281 35.7953 44.5836 36.8899 43.4106 37.9537C42.9096 38.4072 42.3374 38.7895 41.7794 39.1741C40.6872 39.9244 39.4786 40.4231 38.2272 40.8457C37.6574 41.038 37.1208 41.3348 36.5818 41.6079C36.1734 41.8121 35.9739 42.1113 36.0618 42.6218C36.2517 43.7021 36.3776 44.7896 36.7266 45.8439C36.9854 46.6274 37.0733 47.4656 37.2632 48.2729C37.4437 49.0422 37.6574 49.8044 37.8545 50.569C37.8877 50.6972 37.9304 50.8207 37.9518 50.9513C37.9874 51.1626 37.9043 51.3573 37.712 51.4167C37.5743 51.4594 37.3487 51.4357 37.2514 51.3454C36.9925 51.1056 36.7076 50.8468 36.5699 50.5358C36.2755 49.8614 36.057 49.1538 35.8291 48.4534C35.3827 47.0738 35.0028 45.6753 34.2762 44.4002C34.0079 43.9301 33.8227 43.4077 33.6327 42.8972C33.2291 41.8168 33.7396 40.4468 34.744 39.7558C35.2687 39.3949 35.8552 39.1456 36.4678 38.9533C37.8355 38.5235 39.196 38.0747 40.5518 37.6141C42.6128 36.9137 44.2963 35.6433 45.8207 34.1285C46.2718 33.6797 46.7989 33.3069 47.2406 32.8534C48.1666 31.9012 49.0998 30.9562 49.8976 29.8806C50.3606 29.2561 50.6241 28.5533 50.9851 27.8885C51.0705 27.7246 51.1014 27.4967 51.4552 27.6011Z" fill="black"/>
<path d="M25.9664 0.0513908C24.1262 0.571391 22.2718 0.927559 20.5147 1.61377C18.3896 2.44482 16.4141 3.53468 14.8707 5.26327C13.8426 6.41249 12.881 7.62108 11.8623 8.78217C10.706 10.1 9.39529 11.254 8.01337 12.3343C6.6457 13.4028 5.22816 14.3953 3.75127 15.2976C3.02944 15.7393 2.28387 16.1524 1.52168 16.5204C1.251 16.651 0.880585 16.6771 0.579033 16.6249C0.0139186 16.5252 -0.0715614 16.1999 0.0804021 15.5707C0.194375 15.1005 0.460311 14.6684 0.875836 14.3716C1.25337 14.1009 1.62378 13.8112 2.03218 13.5904C3.82725 12.6192 5.56296 11.5603 7.08497 10.1902C8.07985 9.29505 9.0415 8.36902 10.0316 7.46911C11.3566 6.2629 12.6886 5.06618 14.2106 4.10217C15.8347 3.07404 17.4755 2.07441 19.1969 1.21487C19.8665 0.880072 20.5456 0.545274 21.2532 0.305456C21.7637 0.132123 22.3241 0.068017 22.8654 0.0418983C23.7178 -0.00321585 24.5726 0.0228988 25.4251 0.0228988C25.6055 0.01815 25.786 0.0395187 25.9664 0.0513908Z" fill="black"/>
<path d="M14.4164 0.428375C14.2525 0.625453 14.1077 0.851024 13.9154 1.02198C12.9395 1.8839 11.9304 2.70783 10.9758 3.59349C10.216 4.29632 9.49893 5.04902 8.80323 5.81596C7.77747 6.94618 6.61163 7.87696 5.29145 8.6439C4.00213 9.39422 2.64633 10.0045 1.29766 10.6289C0.649438 10.9281 0.0890726 10.5245 0.0297119 9.7955C-0.074763 8.50856 0.499849 7.58966 1.58259 6.95331C2.31154 6.52354 3.08323 6.16025 3.77656 5.68062C4.59811 5.11313 5.3793 4.4839 6.13437 3.82856C7.38807 2.74345 8.6014 1.61085 9.84085 0.509112C10.2208 0.171943 10.6743 0.0128572 11.1943 0.0199805C11.9897 0.0318526 12.7875 0.0104805 13.5853 0.0176037C13.8798 0.0223526 14.2051 -0.0108941 14.4164 0.428375Z" fill="black"/>
<path d="M11.6303 51.4877C10.9963 51.4877 10.4146 51.4877 9.83285 51.4877C7.21623 51.4853 4.59723 51.4948 1.98061 51.4711C1.45824 51.4664 0.931115 51.3595 0.422987 51.236C0.273398 51.2004 0.0976896 50.963 0.0691965 50.7968C0.00983576 50.4453 0.021708 50.0797 0.0359546 49.7188C0.0478268 49.4481 0.290019 49.1893 0.591571 49.1655C0.867005 49.1442 1.16143 49.1631 1.42737 49.2391C1.97349 49.3911 2.50299 49.6024 3.04436 49.7686C3.22006 49.8232 3.41952 49.8399 3.60235 49.8185C3.88253 49.7853 3.97513 49.5502 3.80417 49.3222C3.71869 49.2059 3.57623 49.1323 3.46226 49.0373C2.69532 48.3962 1.89751 47.7884 1.17093 47.1069C0.453854 46.4326 0.000338366 45.5968 0.0240827 44.5663C0.0312059 44.2433 0.0145844 43.9204 0.0383287 43.5999C0.0502008 43.4147 0.0953152 43.2247 0.166548 43.0537C0.32326 42.6905 0.425361 42.6572 0.769653 42.8495C2.29404 43.6948 3.66171 44.761 4.97002 45.9054C5.79395 46.6273 6.44216 47.5058 7.17349 48.3131C7.63413 48.8236 8.20162 49.2629 8.78573 49.6309C9.51705 50.0916 10.3196 50.4358 11.0794 50.8514C11.3002 50.9677 11.5852 51.0508 11.6303 51.4877Z" fill="black"/>
<path d="M49.7047 51.4119C48.6362 51.6114 47.7481 51.438 47.1379 50.5643C46.9408 50.2841 46.8387 49.9065 46.7912 49.5599C46.6844 48.7977 46.815 48.0497 47.0809 47.3279C47.316 46.6892 47.5534 46.0505 47.7719 45.407C48.261 43.9586 49.0351 42.6883 50.1344 41.6269C50.2935 41.4726 50.4977 41.3467 50.7043 41.2636C51.1127 41.0998 51.4 41.2707 51.4 41.7053C51.3976 42.3677 51.3311 43.0349 50.9512 43.6095C50.3505 44.5213 49.9991 45.5186 49.7806 46.5847C49.6429 47.2662 49.415 47.9263 49.2321 48.6006C49.1063 49.0707 48.9567 49.5385 48.8807 50.0181C48.8071 50.4859 49.0256 50.8516 49.4387 51.1009C49.5361 51.1579 49.5954 51.2813 49.7047 51.4119Z" fill="black"/>
<path d="M6.88026 0.10001C6.72117 0.225855 6.6072 0.346945 6.46948 0.420552C5.37487 1.01179 4.27788 1.59827 3.17615 2.17764C2.50893 2.52905 1.83697 2.86859 1.16026 3.20101C0.671125 3.44083 0.0798926 3.10366 0.0371529 2.55042C0.0110342 2.21087 0.0134085 1.86421 0.0537738 1.52704C0.0965135 1.18512 0.227107 0.881198 0.559528 0.686495C0.970304 0.446677 1.3977 0.304207 1.86546 0.199732C3.46583 -0.154058 5.08044 0.104755 6.68555 0.0287731C6.73304 0.0263987 6.78291 0.0620194 6.88026 0.10001Z" fill="black"/>
<path d="M63.115 11.4951H65.1447L67.6378 4.01847L70.083 11.4951H72.1126L75.8843 0.224138H73.3752L71.0738 7.78079L68.5328 0.192119H66.7428L64.2178 7.78079L61.9164 0.224138H59.3594L63.115 11.4951Z" fill="black"/>
<path d="M82.2154 9.49384C80.2497 9.49384 78.7634 7.94089 78.7634 5.82759C78.7634 3.71429 80.2497 2.16133 82.2154 2.16133C84.1812 2.16133 85.6674 3.71429 85.6674 5.82759C85.6674 7.94089 84.1812 9.49384 82.2154 9.49384ZM82.2154 11.6552C85.5875 11.6552 88.0167 9.04557 88.0167 5.82759C88.0167 2.5936 85.5875 0 82.2154 0C78.8433 0 76.4141 2.5936 76.4141 5.82759C76.4141 9.04557 78.8433 11.6552 82.2154 11.6552Z" fill="black"/>
<path d="M95.5126 9.49384C93.5468 9.49384 92.0606 7.94089 92.0606 5.82759C92.0606 3.71429 93.5468 2.16133 95.5126 2.16133C97.4783 2.16133 98.9646 3.71429 98.9646 5.82759C98.9646 7.94089 97.4783 9.49384 95.5126 9.49384ZM95.5126 11.6552C98.8847 11.6552 101.314 9.04557 101.314 5.82759C101.314 2.5936 98.8847 0 95.5126 0C92.1405 0 89.7113 2.5936 89.7113 5.82759C89.7113 9.04557 92.1405 11.6552 95.5126 11.6552Z" fill="black"/>
<path d="M103.392 11.431H107.579C111.207 11.431 113.716 9.12562 113.716 5.82759C113.716 2.52956 111.207 0.224138 107.579 0.224138H103.392V11.431ZM105.693 9.36576V2.28941H107.387C109.896 2.28941 111.351 3.60222 111.351 5.82759C111.351 8.05296 109.896 9.36576 107.387 9.36576H105.693Z" fill="black"/>
<path d="M65.9278 31.8276C67.0944 31.8276 68.2131 31.5394 69.1081 31.0111V28.6897C68.2131 29.3941 67.1903 29.6663 66.0396 29.6663C63.8662 29.6663 62.2201 28.1613 62.2201 26C62.2201 23.8707 63.8342 22.3337 65.9438 22.3337C67.2063 22.3337 68.0693 22.6379 68.8844 23.1983V20.8768C68.0054 20.4126 67.0305 20.1724 65.9278 20.1724C62.4598 20.1724 59.8708 22.5899 59.8708 26C59.8708 29.4101 62.4918 31.8276 65.9278 31.8276Z" fill="black"/>
<path d="M71.07 31.6034H73.3713V27.0727H75.3051L78.5653 31.6034H81.2342L77.7822 26.8165C79.2525 26.3682 80.0995 25.1835 80.0995 23.7106C80.0995 21.7894 78.6612 20.3965 76.248 20.3965H71.07V31.6034ZM73.3713 25.1355V22.4138H76.1201C77.1589 22.4138 77.7822 22.8941 77.7822 23.7746C77.7822 24.6712 77.1589 25.1355 76.1201 25.1355H73.3713Z" fill="black"/>
<path d="M81.7691 31.6034H84.1823L85.285 29.0099H90.0155L91.1183 31.6034H93.5634L88.769 20.3325H86.5635L81.7691 31.6034ZM86.0042 27.1047L87.6503 23.2143L89.2804 27.1047H86.0042Z" fill="black"/>
<path d="M95.0422 31.6034H97.3436V26.7685H101.898V24.7352H97.3436V22.4618H103.241V20.3965H95.0422V31.6034Z" fill="black"/>
<path d="M104.326 20.3965V22.4618H107.858V31.6034H110.16V22.4618H113.708V20.3965H104.326Z" fill="black"/>
<path d="M63.9621 52C66.4552 52 68.4049 50.7032 68.4049 48.5259C68.4049 46.3965 66.6469 45.6121 64.857 45.0197C63.3228 44.5554 62.1402 44.3793 62.1402 43.5628C62.1402 42.9384 62.6516 42.4581 64.042 42.4581C65.3684 42.4581 66.7748 42.9544 67.6698 43.5148V41.2734C66.7588 40.7771 65.5282 40.3448 64.01 40.3448C61.421 40.3448 59.7909 41.5456 59.7909 43.5468C59.7909 45.8362 61.5968 46.3645 63.5306 46.9729C64.9849 47.4372 66.0237 47.6133 66.0237 48.5899C66.0237 49.4865 64.9689 49.8867 63.8662 49.8867C62.316 49.8867 60.6219 49.1663 59.711 48.3978V50.7993C60.8137 51.5677 62.316 52 63.9621 52Z" fill="black"/>
<path d="M69.2419 40.569V42.6342H72.7739V51.7759H75.0752V42.6342H78.6231V40.569H69.2419Z" fill="black"/>
<path d="M84.9751 52C87.66 52 89.7856 50.319 89.7856 47.069V40.569H87.4842V47.149C87.4842 48.9901 86.3975 49.8387 84.9751 49.8387C83.5687 49.8387 82.482 48.9901 82.482 47.149V40.569H80.1966V47.069C80.1966 50.319 82.2902 52 84.9751 52Z" fill="black"/>
<path d="M92.0925 51.7759H96.2797C99.9075 51.7759 102.417 49.4704 102.417 46.1724C102.417 42.8744 99.9075 40.569 96.2797 40.569H92.0925V51.7759ZM94.3939 49.7106V42.6342H96.0879C98.597 42.6342 100.051 43.947 100.051 46.1724C100.051 48.3978 98.597 49.7106 96.0879 49.7106H94.3939Z" fill="black"/>
<path d="M104.58 51.7759H106.865V40.569H104.58V51.7759Z" fill="black"/>
<path d="M114.818 49.8387C112.853 49.8387 111.366 48.2857 111.366 46.1724C111.366 44.0591 112.853 42.5062 114.818 42.5062C116.784 42.5062 118.27 44.0591 118.27 46.1724C118.27 48.2857 116.784 49.8387 114.818 49.8387ZM114.818 52C118.19 52 120.62 49.3904 120.62 46.1724C120.62 42.9384 118.19 40.3448 114.818 40.3448C111.446 40.3448 109.017 42.9384 109.017 46.1724C109.017 49.3904 111.446 52 114.818 52Z" fill="black"/>
</svg>
