<svg width="46" height="45" viewBox="0 0 46 45" fill="none" xmlns="http://www.w3.org/2000/svg">
<g clip-path="url(#clip0)">
<path d="M22.9998 4.15674C19.2298 4.15674 15.698 5.60562 13.0539 8.23776L13.0143 8.2774C12.7548 8.53721 12.7597 8.95355 13.0252 9.20746C13.2907 9.46129 13.7163 9.45654 13.9759 9.19683L14.0142 9.15851C16.4022 6.78124 19.5934 5.47211 22.9998 5.47211C29.946 5.47211 35.5972 11.0003 35.5972 17.7956C35.5972 24.5909 29.946 30.1191 22.9998 30.1191C16.0536 30.1191 10.4025 24.5908 10.4025 17.7956C10.4025 15.5757 11.0123 13.3998 12.1661 11.5031C12.3559 11.1909 12.2513 10.7873 11.9321 10.6016C11.6129 10.4159 11.2005 10.5183 11.0106 10.8304C9.73313 12.9305 9.05786 15.3391 9.05786 17.7957C9.05786 25.3161 15.3122 31.4346 22.9997 31.4346C30.6873 31.4346 36.9416 25.3161 36.9416 17.7957C36.9416 10.2752 30.6874 4.15674 22.9998 4.15674Z" fill="black"/>
<path d="M40.0281 15.0585C39.6634 14.5272 39.3189 14.0253 39.1895 13.5517C39.0514 13.0462 39.0926 12.4235 39.1364 11.7642C39.2016 10.7808 39.2691 9.76386 38.7555 8.89567C38.2341 8.01396 37.292 7.56141 36.381 7.12371C35.782 6.83596 35.2162 6.56411 34.8485 6.20438C34.4807 5.84455 34.2029 5.2911 33.9086 4.70505C33.4613 3.81393 32.9987 2.89239 32.0973 2.38228C31.2098 1.87998 30.1703 1.94599 29.165 2.00971C28.491 2.05251 27.8546 2.09294 27.3377 1.95776C26.8536 1.83111 26.3405 1.49414 25.7974 1.1373C24.9862 0.604248 24.0665 0 22.9997 0C21.9329 0 21.0132 0.604248 20.2017 1.13739C19.6586 1.49423 19.1457 1.8312 18.6615 1.95776C18.1448 2.09294 17.5083 2.05251 16.8344 2.00971C15.829 1.94599 14.7896 1.87998 13.902 2.38228C13.0007 2.89239 12.5381 3.81393 12.0907 4.70505C11.7965 5.2911 11.5187 5.84464 11.1508 6.20438C10.7831 6.56411 10.2174 6.83596 9.61829 7.12371C8.70727 7.56132 7.76535 8.01396 7.24381 8.89567C6.73026 9.76386 6.79773 10.7808 6.86296 11.7643C6.90671 12.4235 6.94795 13.0462 6.80986 13.5517C6.6804 14.0253 6.33594 14.5272 5.97117 15.0585C5.42627 15.8523 4.80859 16.752 4.80859 17.7956C4.80859 18.8392 5.42618 19.7389 5.97117 20.5327C6.33585 21.064 6.6804 21.5659 6.80977 22.0395C6.94786 22.545 6.90662 23.1677 6.86287 23.827C6.79764 24.8104 6.73017 25.8273 7.24372 26.6955C7.76517 27.5773 8.70718 28.0299 9.6182 28.4675C10.2172 28.7553 10.783 29.0271 11.1508 29.3868C11.4917 29.7204 11.7555 30.221 12.0265 30.7591L7.14345 39.5473C6.93394 39.9243 6.93996 40.3712 7.15962 40.7427C7.37929 41.1142 7.77218 41.3421 8.21071 41.3525L11.9555 41.4411L14.0682 44.4671C14.3033 44.8039 14.6846 45 15.0979 45C15.1194 45 15.1412 44.9995 15.1629 44.9984C15.601 44.9767 15.9876 44.7386 16.1971 44.3616L21.3245 35.1338C21.8405 35.398 22.3965 35.5912 22.9996 35.5912C23.6026 35.5912 24.1587 35.398 24.6748 35.1338L29.8021 44.3616C30.0116 44.7387 30.3982 44.9768 30.8363 44.9985C30.8582 44.9996 30.8798 45.0001 30.9014 45.0001C31.3147 45.0001 31.6959 44.804 31.9311 44.4672L34.0437 41.4412L37.7884 41.3525C38.227 41.3422 38.6199 41.1142 38.8395 40.7428C39.0592 40.3712 39.0652 39.9244 38.8557 39.5474L37.07 36.3336C36.8927 36.0144 36.4845 35.8962 36.1583 36.0699C35.8321 36.2434 35.7114 36.6427 35.8887 36.9618L37.5998 40.0412L33.9622 40.1273C33.5613 40.1368 33.187 40.3359 32.9609 40.6598L30.9087 43.5991L25.8193 34.4395C26.3543 34.088 26.8601 33.7583 27.3377 33.6334C27.8544 33.4983 28.491 33.5386 29.1649 33.5814C30.1703 33.6452 31.2097 33.7112 32.0972 33.2089C32.567 32.943 32.917 32.5649 33.2084 32.138L34.4095 34.2998C34.5868 34.6189 34.9947 34.7369 35.3212 34.5635C35.6475 34.39 35.7681 33.9907 35.5909 33.6716L33.9725 30.759C34.2436 30.2209 34.5073 29.7204 34.8483 29.3868C35.216 29.0271 35.7818 28.7553 36.3808 28.4675C37.2919 28.0299 38.2338 27.5773 38.7553 26.6955C39.2689 25.8274 39.2014 24.8104 39.1362 23.8269C39.0924 23.1677 39.0512 22.545 39.1893 22.0395C39.3187 21.5658 39.6632 21.064 40.0279 20.5327C40.5728 19.7389 41.1905 18.8392 41.1905 17.7956C41.1907 16.752 40.573 15.8522 40.0281 15.0585ZM15.0905 43.5991L13.0384 40.6599C12.8122 40.336 12.4379 40.1369 12.0371 40.1274L8.39956 40.0413L12.7909 32.1382C13.0822 32.565 13.4322 32.9431 13.902 33.2089C14.7896 33.7112 15.8293 33.6453 16.8344 33.5815C17.5083 33.5387 18.1448 33.4984 18.6615 33.6335C19.1392 33.7584 19.645 34.0882 20.18 34.4396L15.0905 43.5991ZM38.9118 19.7994C38.5018 20.3968 38.0777 21.0145 37.8905 21.6998C37.6953 22.4142 37.7458 23.1757 37.7946 23.9121C37.8493 24.7359 37.9008 25.5141 37.5917 26.0368C37.2747 26.5727 36.5527 26.9196 35.7883 27.2869C35.1172 27.6093 34.4232 27.9426 33.8977 28.4568C33.3722 28.9709 33.0314 29.6498 32.7017 30.3064C32.3264 31.0541 31.9718 31.7603 31.4241 32.0704C30.8897 32.3728 30.0944 32.3223 29.2521 32.269C28.4993 32.2211 27.721 32.1718 26.9907 32.3627C26.2902 32.546 25.6588 32.9607 25.0481 33.362C24.3327 33.832 23.657 34.2759 22.9997 34.2759C22.3425 34.2759 21.6668 33.832 20.9514 33.362C20.3407 32.9608 19.7094 32.546 19.0087 32.3627C18.6078 32.2579 18.1925 32.2255 17.7748 32.2255C17.4316 32.2255 17.0868 32.2474 16.7473 32.269C15.905 32.3224 15.1096 32.373 14.5753 32.0705C14.0275 31.7604 13.6729 31.0541 13.2976 30.3064C12.968 29.6498 12.6272 28.9709 12.1016 28.4568C11.5761 27.9427 10.8821 27.6093 10.211 27.2869C9.4466 26.9197 8.72461 26.5728 8.40764 26.0368C8.09849 25.5141 8.15006 24.7359 8.20469 23.9121C8.25356 23.1758 8.30405 22.4143 8.10882 21.6999C7.92159 21.0146 7.49753 20.3968 7.08739 19.7995C6.607 19.0996 6.15319 18.4386 6.15319 17.7957C6.15319 17.1527 6.607 16.4917 7.08739 15.7918C7.49753 15.1944 7.9215 14.5767 8.10882 13.8914C8.30405 13.177 8.25356 12.4155 8.20469 11.6792C8.15006 10.8553 8.09849 10.0771 8.40764 9.55441C8.72461 9.01855 9.4466 8.67164 10.211 8.30435C10.8821 7.98196 11.5761 7.64851 12.1016 7.13443C12.6271 6.62036 12.9679 5.94141 13.2976 5.28486C13.6729 4.53718 14.0275 3.83089 14.5753 3.52081C15.1096 3.21847 15.905 3.26892 16.7473 3.32227C17.5 3.37008 18.2783 3.41947 19.0087 3.22849C19.7092 3.04523 20.3406 2.63048 20.9513 2.22926C21.6667 1.75922 22.3424 1.31528 22.9997 1.31528C23.6569 1.31528 24.3326 1.75922 25.0481 2.22917C25.6587 2.63039 26.2901 3.04523 26.9907 3.2284C27.721 3.41938 28.4995 3.36999 29.2522 3.32218C30.0944 3.26883 30.8899 3.21829 31.4241 3.52072C31.9719 3.8308 32.3265 4.53709 32.7018 5.28478C33.0314 5.94132 33.3723 6.62019 33.8978 7.13435C34.4233 7.64842 35.1174 7.98187 35.7884 8.30426C36.5528 8.67146 37.2747 9.01837 37.5917 9.55424C37.9008 10.0769 37.8493 10.8551 37.7946 11.6789C37.7458 12.4153 37.6953 13.1767 37.8905 13.8911C38.0777 14.5765 38.5018 15.1943 38.9119 15.7916C39.3923 16.4914 39.8461 17.1525 39.8461 17.7954C39.8461 18.4385 39.3923 19.0995 38.9118 19.7994Z" fill="black"/>
<path d="M32.2322 17.1796C32.6864 16.7464 32.8468 16.1107 32.6507 15.5205C32.4547 14.9303 31.9429 14.5081 31.3152 14.4189L26.7558 13.7708C26.6548 13.7565 26.5676 13.6945 26.5225 13.605L24.4835 9.56333C24.2027 9.00681 23.6342 8.66113 22.9999 8.66113C22.3656 8.66113 21.7971 9.00681 21.5163 9.56333L19.4773 13.605C19.4322 13.6945 19.345 13.7565 19.244 13.7708L14.6847 14.4189C14.0569 14.5081 13.5451 14.9302 13.3491 15.5205C13.153 16.1107 13.3134 16.7464 13.7677 17.1796L17.0669 20.3255C17.14 20.3952 17.1733 20.4955 17.156 20.5939L16.3772 25.0361C16.2699 25.6478 16.5222 26.2544 17.0354 26.6191C17.3254 26.8252 17.6646 26.9299 18.0062 26.9299C18.2691 26.9299 18.5334 26.8679 18.7777 26.7423L22.8556 24.6449C22.946 24.5985 23.0538 24.5985 23.144 24.6449L27.222 26.7423C27.7834 27.031 28.4511 26.9838 28.9644 26.6191C29.4776 26.2544 29.7298 25.6478 29.6226 25.0361L28.8437 20.5939C28.8264 20.4955 28.8598 20.3952 28.9327 20.3256L32.2322 17.1796ZM27.5186 20.8162L28.2974 25.2585C28.3268 25.4261 28.221 25.5216 28.1742 25.5549C28.1273 25.5883 28.0018 25.6571 27.8479 25.578L23.7698 23.4806C23.2877 23.2327 22.7121 23.2328 22.23 23.4806L18.152 25.5781C17.9983 25.6572 17.8726 25.5883 17.8257 25.5549C17.7789 25.5216 17.6731 25.4261 17.7024 25.2585L18.4813 20.8163C18.5734 20.2913 18.3956 19.7557 18.0055 19.3837L14.7063 16.2377C14.5818 16.119 14.61 15.9808 14.6279 15.9271C14.6458 15.8732 14.706 15.7452 14.878 15.7208L19.4374 15.0727C19.9764 14.996 20.442 14.6651 20.6831 14.1873L22.7221 10.1457C22.799 9.9932 22.942 9.97677 23 9.97677C23.0579 9.97677 23.2009 9.9932 23.2779 10.1457L25.3169 14.1873C25.5579 14.6651 26.0236 14.9961 26.5626 15.0727L31.122 15.7208C31.294 15.7452 31.3541 15.8732 31.3721 15.9271C31.39 15.9809 31.4182 16.1191 31.2937 16.2377L27.9944 19.3838C27.6043 19.7557 27.4265 20.2913 27.5186 20.8162Z" fill="black"/>
</g>
<defs>
<clipPath id="clip0">
<rect width="46" height="45" fill="white"/>
</clipPath>
</defs>
</svg>
