<svg width="45" height="45" viewBox="0 0 45 45" fill="none" xmlns="http://www.w3.org/2000/svg">
<g clip-path="url(#clip0)">
<path d="M14.5629 9.02152C14.927 9.02152 15.2221 8.72647 15.2221 8.36234V6.7085H16.8604C17.2246 6.7085 17.5196 6.41345 17.5196 6.04932C17.5196 5.68519 17.2246 5.39014 16.8604 5.39014H15.0568C14.421 5.39014 13.9038 5.90737 13.9038 6.54317V8.36225C13.9037 8.72638 14.1988 9.02152 14.5629 9.02152Z" fill="black"/>
<path d="M37.5801 6.7085H39.1881V8.36225C39.1881 8.72638 39.4832 9.02143 39.8473 9.02143C40.2114 9.02143 40.5065 8.72638 40.5065 8.36225V6.54317C40.5065 5.90737 39.9892 5.39014 39.3534 5.39014H37.5801C37.2159 5.39014 36.9209 5.68519 36.9209 6.04932C36.9209 6.41345 37.216 6.7085 37.5801 6.7085Z" fill="black"/>
<path d="M37.5801 31.9939H39.3534C39.9892 31.9939 40.5065 31.4766 40.5065 30.8408V29.0828C40.5065 28.7186 40.2114 28.4236 39.8473 28.4236C39.4832 28.4236 39.1881 28.7186 39.1881 29.0828V30.6755H37.5801C37.2159 30.6755 36.9209 30.9706 36.9209 31.3347C36.9209 31.6988 37.216 31.9939 37.5801 31.9939Z" fill="black"/>
<path d="M15.0566 31.9939H16.8603C17.2244 31.9939 17.5195 31.6988 17.5195 31.3347C17.5195 30.9706 17.2244 30.6755 16.8603 30.6755H15.2219V29.0828C15.2219 28.7186 14.9269 28.4236 14.5627 28.4236C14.1986 28.4236 13.9036 28.7186 13.9036 29.0828V30.8408C13.9037 31.4766 14.4208 31.9939 15.0566 31.9939Z" fill="black"/>
<path d="M43.2081 35.6756H9.79796C9.53684 35.6756 9.3244 35.4632 9.3244 35.202V1.79191C9.3244 0.803848 8.52047 0 7.5324 0H1.79191C0.803848 0 0 0.803848 0 1.79191V12.5143C0 12.8784 0.295049 13.1735 0.65918 13.1735C1.02331 13.1735 1.31836 12.8784 1.31836 12.5143V1.79191C1.31836 1.53079 1.53079 1.31836 1.79191 1.31836H7.5324C7.79361 1.31836 8.00605 1.53079 8.00605 1.79191V4.99509H5.77151C5.40738 4.99509 5.11233 5.29014 5.11233 5.65427C5.11233 6.0184 5.40738 6.31345 5.77151 6.31345H8.00605V9.19556H6.63574C6.27161 9.19556 5.97656 9.49061 5.97656 9.85474C5.97656 10.2189 6.27161 10.5139 6.63574 10.5139H8.00605V13.3959H5.77151C5.40738 13.3959 5.11233 13.691 5.11233 14.0551C5.11233 14.4192 5.40738 14.7143 5.77151 14.7143H8.00605V17.5964H6.63574C6.27161 17.5964 5.97656 17.8915 5.97656 18.2556C5.97656 18.6197 6.27161 18.9148 6.63574 18.9148H8.00605V21.7968H5.77151C5.40738 21.7968 5.11233 22.0918 5.11233 22.456C5.11233 22.8201 5.40738 23.1151 5.77151 23.1151H8.00605V25.9973H6.63574C6.27161 25.9973 5.97656 26.2923 5.97656 26.6564C5.97656 27.0206 6.27161 27.3156 6.63574 27.3156H8.00605V30.1977H5.77151C5.40738 30.1977 5.11233 30.4928 5.11233 30.8569C5.11233 31.221 5.40738 31.5161 5.77151 31.5161H8.00605V35.202C8.00605 35.4549 8.05869 35.6957 8.15361 35.914L1.31836 42.7494V15.5959C1.31836 15.2318 1.02331 14.9367 0.65918 14.9367C0.295049 14.9367 0 15.2318 0 15.5959V43.2081C0 44.1957 0.80332 45 1.79191 45H43.2082C44.1962 45 45.0001 44.1962 45.0001 43.2081V37.4676C45 36.4795 44.1962 35.6756 43.2081 35.6756ZM43.6816 43.2081C43.6816 43.4692 43.4692 43.6816 43.2081 43.6816H2.25062L9.08587 36.8464C9.30419 36.9413 9.54501 36.994 9.79787 36.994H13.0654V39.2298C13.0654 39.5939 13.3604 39.889 13.7246 39.889C14.0887 39.889 14.3837 39.5939 14.3837 39.2298V36.994H17.2659V38.3656C17.2659 38.7297 17.5609 39.0248 17.925 39.0248C18.2892 39.0248 18.5842 38.7297 18.5842 38.3656V36.994H21.4662V39.2298C21.4662 39.5939 21.7613 39.889 22.1254 39.889C22.4895 39.889 22.7846 39.5939 22.7846 39.2298V36.994H25.6667V38.3656C25.6667 38.7297 25.9617 39.0248 26.3259 39.0248C26.69 39.0248 26.9851 38.7297 26.9851 38.3656V36.994H29.8671V39.2298C29.8671 39.5939 30.1621 39.889 30.5263 39.889C30.8904 39.889 31.1854 39.5939 31.1854 39.2298V36.994H34.0676V38.3656C34.0676 38.7297 34.3626 39.0248 34.7267 39.0248C35.0909 39.0248 35.3859 38.7297 35.3859 38.3656V36.994H38.2679V39.2298C38.2679 39.5939 38.563 39.889 38.9271 39.889C39.2912 39.889 39.5863 39.5939 39.5863 39.2298V36.994H43.2081C43.4692 36.994 43.6816 37.2064 43.6816 37.4676V43.2081Z" fill="black"/>
<path d="M18.6683 24.7652L26.2131 29.1213C26.8249 29.4744 27.5847 29.4745 28.1962 29.1213L35.741 24.7652C36.3526 24.4122 36.7326 23.7541 36.7326 23.0478V14.3358C36.7326 13.6305 36.3534 12.9718 35.7411 12.6184L28.1963 8.26242C27.5847 7.90927 26.8248 7.90927 26.2131 8.26242L18.6684 12.6185C18.0572 12.9712 17.6768 13.6292 17.6768 14.3358V23.0479C17.6768 23.7541 18.0567 24.4122 18.6683 24.7652ZM19.3274 23.6235C19.1225 23.5051 18.9951 23.2846 18.9951 23.0478V14.7132L26.5455 19.0724V27.7908L19.3274 23.6235ZM26.8723 9.40412C27.0773 9.28573 27.332 9.28555 27.537 9.40412L34.7551 13.5715L32.2691 15.0067C31.9538 15.1887 31.8458 15.5919 32.0278 15.9071C32.2106 16.224 32.6145 16.3296 32.9283 16.1484L35.4142 14.7132V23.0478C35.4142 23.2845 35.287 23.5051 35.0819 23.6235L27.8639 27.7908V19.0724L30.2137 17.7157C30.529 17.5337 30.637 17.1305 30.455 16.8152C30.2731 16.5 29.8697 16.392 29.5546 16.574L27.2047 17.9307L19.6543 13.5715L26.8723 9.40412Z" fill="black"/>
</g>
<defs>
<clipPath id="clip0">
<rect width="45" height="45" fill="white"/>
</clipPath>
</defs>
</svg>
