<svg width="45" height="45" viewBox="0 0 45 45" fill="none" xmlns="http://www.w3.org/2000/svg">
<path d="M45 9.4479C45 5.13817 33.4074 2.8125 22.5 2.8125C17.7827 2.8125 13.2801 3.21522 9.47845 3.97705C9.1214 4.04846 8.89034 4.3959 8.96175 4.75296C9.03316 5.11002 9.38061 5.34176 9.73766 5.26966C17.9822 3.61725 29.9635 3.72196 37.7696 5.85777C40.6278 6.63986 43.6816 7.99358 43.6816 9.4479C43.6816 13.7793 21.1621 16.8499 7.23038 13.038C4.37222 12.2559 1.31836 10.9022 1.31836 9.4479C1.31836 8.02139 4.28089 6.68346 7.05322 5.90687C7.40376 5.80868 7.60838 5.44476 7.51019 5.09422C7.41199 4.74369 7.04842 4.53907 6.69754 4.63726C2.31606 5.86464 0 7.52804 0 9.4479V12.085C0 16.1235 10.2173 18.4423 20.5225 18.6967V30.8606C20.5225 31.2245 20.8174 31.5198 21.1816 31.5198C21.5459 31.5198 21.8408 31.2245 21.8408 30.8606V18.718C22.2631 18.7214 22.7008 18.7217 23.1592 18.718V35.5518C23.1592 35.9153 22.8636 36.2109 22.5 36.2109C22.1364 36.2109 21.8408 35.9153 21.8408 35.5518V33.7061C21.8408 33.3421 21.5459 33.0469 21.1816 33.0469C20.8174 33.0469 20.5225 33.3421 20.5225 33.7061V34.6626C17.6612 35.2695 15.2614 37.1273 15.2614 38.8188C15.2614 39.8072 16.0946 40.6831 17.6077 41.2849C18.9284 41.8105 20.6704 42.0996 22.5124 42.0996C24.3543 42.0996 26.096 41.8105 27.4171 41.2849C28.9301 40.6831 29.7633 39.8072 29.7633 38.8188C29.7633 37.9622 29.1131 36.9975 27.9798 36.1721C26.9955 35.4553 25.7688 34.9269 24.4775 34.6574V18.697C28.6506 18.5954 32.6016 18.1731 35.9418 17.47C36.2978 17.3948 36.5258 17.0453 36.4509 16.6889C36.3757 16.3326 36.0255 16.1049 35.6702 16.1798C27.2382 17.9551 14.687 17.837 6.81049 15.5573C0.54039 13.7422 1.39217 11.913 1.31836 11.8144C4.65649 14.6025 13.7964 16.0833 22.5 16.0833C31.2036 16.0833 40.3435 14.6025 43.6816 11.8144V12.085C43.6816 12.5193 43.2961 14.0498 38.334 15.5148C37.9849 15.6178 37.7854 15.9844 37.8888 16.3336C37.9921 16.6845 38.3598 16.8819 38.7076 16.7789C42.824 15.5639 45 13.9406 45 12.085V9.4479ZM28.445 38.8188C28.445 39.6188 26.1337 40.7812 22.5124 40.7812C18.8906 40.7812 16.5797 39.6188 16.5797 38.8188C16.5797 38.1129 18.1134 36.5862 20.574 36.0012C20.7779 36.876 21.5641 37.5293 22.5 37.5293C23.438 37.5293 24.2252 36.8732 24.4274 35.9957C26.9021 36.5766 28.445 38.1085 28.445 38.8188Z" fill="black"/>
</svg>
