<svg width="30" height="30" viewBox="0 0 30 30" fill="none" xmlns="http://www.w3.org/2000/svg">
<path fill-rule="evenodd" clip-rule="evenodd" d="M17.5 8.75C17.5 7.37125 16.3787 6.25 15 6.25C13.6212 6.25 12.4999 7.37125 12.4999 8.75C12.4999 10.1287 13.6212 11.25 15 11.25C16.3787 11.25 17.5 10.1287 17.5 8.75ZM20 8.75C20 11.5075 17.7575 13.75 15 13.75C12.2425 13.75 10 11.5075 10 8.75C10 5.9925 12.2425 3.75 15 3.75C17.7575 3.75 20 5.9925 20 8.75ZM6.25 25C6.25 20.175 10.1763 16.25 15 16.25C19.8238 16.25 23.75 20.175 23.75 25C23.75 25.69 23.1913 26.25 22.5 26.25C21.8088 26.25 21.25 25.69 21.25 25C21.25 21.5537 18.4463 18.75 15 18.75C11.5538 18.75 8.75 21.5537 8.75 25C8.75 25.69 8.19125 26.25 7.5 26.25C6.80875 26.25 6.25 25.69 6.25 25Z" fill="white"/>
<mask id="mask0" mask-type="alpha" maskUnits="userSpaceOnUse" x="6" y="3" width="18" height="24">
<path fill-rule="evenodd" clip-rule="evenodd" d="M17.5 8.75C17.5 7.37125 16.3787 6.25 15 6.25C13.6212 6.25 12.4999 7.37125 12.4999 8.75C12.4999 10.1287 13.6212 11.25 15 11.25C16.3787 11.25 17.5 10.1287 17.5 8.75ZM20 8.75C20 11.5075 17.7575 13.75 15 13.75C12.2425 13.75 10 11.5075 10 8.75C10 5.9925 12.2425 3.75 15 3.75C17.7575 3.75 20 5.9925 20 8.75ZM6.25 25C6.25 20.175 10.1763 16.25 15 16.25C19.8238 16.25 23.75 20.175 23.75 25C23.75 25.69 23.1913 26.25 22.5 26.25C21.8088 26.25 21.25 25.69 21.25 25C21.25 21.5537 18.4463 18.75 15 18.75C11.5538 18.75 8.75 21.5537 8.75 25C8.75 25.69 8.19125 26.25 7.5 26.25C6.80875 26.25 6.25 25.69 6.25 25Z" fill="white"/>
</mask>
<g mask="url(#mask0)">
<rect width="30" height="30" fill="black"/>
</g>
</svg>
