<svg width="30" height="30" fill="none" xmlns="http://www.w3.org/2000/svg"><path fill-rule="evenodd" clip-rule="evenodd" d="M10.956 17.5h9.523l3.75-7.5H8.909l2.047 7.5zm13.271-10c.873 0 1.668.442 2.127 1.185.458.742.5 1.651.11 2.432l-4.095 8.192a1.251 1.251 0 01-1.12.691H10a1.25 1.25 0 01-1.205-.921L5.294 6.25H3.75a1.25 1.25 0 110-2.5h2.5a1.25 1.25 0 011.206.921L8.227 7.5h16zm-14.852 15a1.875 1.875 0 100 3.75 1.875 1.875 0 000-3.75zm12.5 0a1.875 1.875 0 100 3.75 1.875 1.875 0 000-3.75z" fill="#000"/><mask id="a" maskUnits="userSpaceOnUse" x="2" y="3" width="25" height="24"><path fill-rule="evenodd" clip-rule="evenodd" d="M10.956 17.5h9.523l3.75-7.5H8.909l2.047 7.5zm13.271-10c.873 0 1.668.442 2.127 1.185.458.742.5 1.651.11 2.432l-4.095 8.192a1.251 1.251 0 01-1.12.691H10a1.25 1.25 0 01-1.205-.921L5.294 6.25H3.75a1.25 1.25 0 110-2.5h2.5a1.25 1.25 0 011.206.921L8.227 7.5h16zm-14.852 15a1.875 1.875 0 100 3.75 1.875 1.875 0 000-3.75zm12.5 0a1.875 1.875 0 100 3.75 1.875 1.875 0 000-3.75z" fill="#fff"/></mask><g mask="url(#a)"><path fill="#000" d="M0 0h30v30H0z"/></g></svg>