<svg width="30" height="30" fill="none" xmlns="http://www.w3.org/2000/svg"><path fill-rule="evenodd" clip-rule="evenodd" d="M6.25 13.75c0-4.136 3.364-7.5 7.5-7.5s7.5 3.364 7.5 7.5-3.364 7.5-7.5 7.5-7.5-3.364-7.5-7.5zm19.634 10.366l-4.244-4.245a9.94 9.94 0 002.11-6.121c0-5.514-4.486-10-10-10s-10 4.486-10 10 4.486 10 10 10a9.94 9.94 0 006.121-2.11l4.245 4.244a1.247 1.247 0 001.768 0 1.249 1.249 0 000-1.768z" fill="#000"/><mask id="a" maskUnits="userSpaceOnUse" x="3" y="3" width="24" height="24"><path fill-rule="evenodd" clip-rule="evenodd" d="M6.25 13.75c0-4.136 3.364-7.5 7.5-7.5s7.5 3.364 7.5 7.5-3.364 7.5-7.5 7.5-7.5-3.364-7.5-7.5zm19.634 10.366l-4.244-4.245a9.94 9.94 0 002.11-6.121c0-5.514-4.486-10-10-10s-10 4.486-10 10 4.486 10 10 10a9.94 9.94 0 006.121-2.11l4.245 4.244a1.247 1.247 0 001.768 0 1.249 1.249 0 000-1.768z" fill="#fff"/></mask><g mask="url(#a)"><path fill="#000" d="M0 0h30v30H0z"/></g></svg>