<svg width="121" height="52" fill="none" xmlns="http://www.w3.org/2000/svg"><path d="M32.392 1.166c1.408-.023 2.67.098 3.894.49.791.251 1.53.612 2.233 1.063a15.495 15.495 0 013.036 2.524c1.532 1.66 2.86 3.467 3.866 5.492.572 1.154.969 2.36 1.118 3.655.067.581.254 1.165.145 1.745-.178.95-.15 1.916-.363 2.866-.228 1.014-.503 2.001-.902 2.958-.518 1.24-1.14 2.422-1.94 3.5-.45.606-.898 1.22-1.427 1.753-.637.638-1.394 1.154-2.035 1.788-.924.914-2.061 1.455-3.213 1.975-.539.245-1.12.397-1.681.594-.088.03-.17.07-.252.116-.548.313-1.151.46-1.764.572-.111.02-.24.024-.325.083-.686.473-1.503.618-2.265.895-1.342.49-2.703.924-4.063 1.356-.646.204-1.31.342-1.961.527-.618.174-1.226.376-1.84.549-1.107.309-2.22.6-3.327.91-1 .277-1.992.579-2.99.854-.417.117-.845.2-1.272.285-.416.085-.793.242-1.111.53-.16.144-.167.29-.015.439.095.092.188.194.302.259.591.33 1.192.64 1.78.973 1.551.879 3.19 1.598 4.638 2.669 1.076.795 2.146 1.589 3.141 2.49 1.264 1.145 2.39 2.413 3.427 3.762.287.375.553.767.828 1.151.022.031.053.057.072.09.159.314.425.61.197.998-.21.358-.549.425-.929.41-.437-.014-.873.013-1.31-.014-1.116-.064-2.07-.467-2.85-1.303a37.564 37.564 0 00-4.153-3.835c-1.14-.902-2.41-1.61-3.718-2.244-1.251-.605-2.507-1.21-3.597-2.087-.886-.71-1.698-1.493-2.159-2.574-.45-1.059-.434-2.091.107-3.108.216-.403.537-.674 1.014-.72.473-.044.945-.087 1.415-.142.96-.116 1.921-.204 2.871-.37.947-.164 1.88-.404 2.816-.622.712-.166 1.432-.316 2.13-.53a42.366 42.366 0 002.438-.86 95.853 95.853 0 003.215-1.26 74.041 74.041 0 003.078-1.373c.797-.375 1.555-.847 2.367-1.182a31.14 31.14 0 003.284-1.579c1.168-.648 2.327-1.332 3.417-2.104.845-.596 1.548-1.374 2.182-2.208 1.02-1.341 1.707-2.84 2.232-4.426.567-1.716.743-3.488.53-5.269-.167-1.377-.69-2.666-1.414-3.86-.919-1.518-2.113-2.81-3.502-3.883-1.975-1.526-4.215-1.956-6.646-1.284-.51.14-1.037.216-1.555.332a37.87 37.87 0 00-1.268.304c-.456.116-.902.266-1.363.361-.534.112-1.083.157-1.615.273-.64.14-1.289.285-1.906.503a13.148 13.148 0 00-4.068 2.29 30.001 30.001 0 00-3.799 3.789c-1.009 1.197-2.016 2.396-3.089 3.536a32.337 32.337 0 01-3.773 3.41A23.78 23.78 0 014.8 21.923c-.942.47-1.933.83-2.956 1.1-.09.023-.176.066-.264.099-.776.29-1.49-.207-1.543-1.036-.05-.79.361-1.37.838-1.904.257-.287.608-.5.943-.707 1.83-1.128 3.683-2.225 5.29-3.669a35.442 35.442 0 003.372-3.488 96.396 96.396 0 012.149-2.472 84.96 84.96 0 012.289-2.429c1.505-1.538 3.21-2.792 5.207-3.635a20.927 20.927 0 013.766-1.18c.805-.173 1.595-.413 2.398-.606.44-.104.89-.173 1.334-.256 1.615-.306 3.234-.636 4.77-.575z" fill="#000"/><path d="M.037 29.797c.432 0 .774-.045 1.101.007a5.735 5.735 0 003.484-.51 25.194 25.194 0 001.823-1.003c.876-.515 1.722-1.085 2.683-1.438.864-.319 1.722-.66 2.6-.934.501-.154 1.038-.201 1.56-.275 3.327-.465 6.668-.161 10.004-.157a63.77 63.77 0 004.152-.109c.727-.045 1.444-.254 2.164-.39.498-.092 1.011-.149 1.495-.289.744-.214 1.494-.432 2.197-.746.926-.41 1.833-.88 2.712-1.386 1.184-.686 2.203-1.584 2.922-2.76.402-.655.73-1.379.744-2.177.012-.72.069-1.46-.072-2.156a6.653 6.653 0 00-.992-2.403c-1.05-1.574-2.386-2.792-4.208-3.426-.871-.304-1.76-.503-2.668-.382-.855.114-1.712.244-2.543.515-1.855.606-3.484 1.596-5.039 2.754-2.522 1.879-4.668 4.153-6.87 6.376-1.194 1.206-2.371 2.436-3.646 3.557a24.533 24.533 0 01-4.832 3.331A25.03 25.03 0 015.4 27.28c-.968.335-1.94.61-2.951.762-.354.055-.698.185-1.052.202C.61 28.28.084 27.7.015 26.919c-.078-.919.582-1.664 1.223-1.897.42-.154.883-.18 1.327-.273 1.107-.228 2.218-.42 3.246-.933.705-.352 1.453-.625 2.16-.971 1.17-.573 2.23-1.316 3.28-2.085 2.028-1.489 3.828-3.234 5.642-4.96.94-.896 1.82-1.85 2.773-2.73 1.415-1.31 2.916-2.52 4.578-3.503.677-.402 1.417-.708 2.153-.995.836-.325 1.686-.639 2.555-.857 1.442-.361 2.926-.527 4.395-.26 1.285.236 2.441.834 3.493 1.625 1.62 1.218 2.859 2.74 3.652 4.597.306.717.6 1.467.572 2.284-.007.185.055.373.079.563.026.225.076.453.059.677-.171 2.153-1.04 3.944-2.735 5.323a19.53 19.53 0 01-3.241 2.151c-.627.33-1.28.62-1.988.79-.705.17-1.375.483-2.068.713-.39.13-.786.254-1.19.33-1.078.202-2.158.383-3.24.558-.972.157-1.943.326-2.921.43-1.206.128-2.422.18-3.628.3-1.128.11-2.251.26-3.377.408-.636.083-1.277.161-1.904.292a26.67 26.67 0 00-2.194.544c-1.14.337-2.268.707-3.398 1.075-.591.192-1.163.447-1.762.61-1.234.34-2.45.741-3.742.895-.79.095-1.574.174-2.367.157-.333-.007-.663-.111-.993-.18-.287-.06-.406-.273-.415-.54-.014-.403-.002-.797-.002-1.26z" fill="#000"/><path d="M38.485.326c-.04-.18.048-.295.233-.297 1.026-.002 2.061-.083 3.073.036 1.16.135 2.18.686 3.077 1.46 1.216 1.052 2.39 2.14 3.466 3.331.953 1.057 1.75 2.227 2.33 3.531.33.743.593 1.515.622 2.344.012.325.111.607.311.89.185.263.297.622.318.947.06.907.364 1.79.257 2.707-.11.938-.24 1.876-.359 2.814-.06.468-.147.919-.392 1.341-.107.186-.095.442-.13.665-.093.599-.121 1.216-.285 1.793-.212.743-.48 1.48-.817 2.175-.55 1.135-1.178 2.232-1.774 3.343a1.386 1.386 0 01-.194.276c-.601.667-1.083 1.424-1.634 2.13-.838 1.073-1.817 2.003-2.895 2.846-.481.378-.92.82-1.431 1.178a20.7 20.7 0 01-3.958 2.159c-.537.223-1.107.365-1.665.536-.992.302-1.985.6-2.98.89-.36.105-.729.188-1.097.264-.496.102-1 .176-1.493.28-1.074.23-2.147.458-3.215.717-.302.074-.62.2-.75.64.218.163.43.4.693.502.586.226 1.042.625 1.462 1.048 1.01 1.013 1.729 2.227 2.296 3.538a38.68 38.68 0 011.423 3.867c.185.592.434 1.164.653 1.746.033.087.054.182.07.275.153.862-.483 1.415-1.322 1.128-.852-.294-1.488-.834-1.928-1.648-.81-1.496-1.46-3.06-2.103-4.628-.475-1.151-1.219-2.084-2.17-2.858-.573-.466-1.171-.896-1.767-1.333a5.014 5.014 0 00-2.052-.89c-.574-.11-1.14-.259-1.705-.406-.403-.104-.648-.41-.645-.76.002-.356.332-.781.702-.867.183-.042.378-.042.566-.047.626-.017 1.256.007 1.878-.047 1.168-.103 2.334-.238 3.5-.376a50.147 50.147 0 002.132-.299c.43-.069.855-.166 1.275-.278 1.092-.29 2.196-.546 3.265-.902a27.084 27.084 0 003.808-1.588c1.105-.568 2.173-1.188 3.156-1.95.541-.42 1.137-.788 1.61-1.277.278-.288.546-.608.812-.917.517-.6 1.054-1.187 1.512-1.83a62.112 62.112 0 002.301-3.412c.653-1.055 1.235-2.154 1.814-3.253.615-1.166 1.133-2.387 1.449-3.664.368-1.487.695-3 .52-4.55-.18-1.6-.51-3.162-1.242-4.625-.758-1.515-1.883-2.707-3.106-3.837-1.45-1.342-3.091-2.405-4.782-3.4-.883-.518-1.793-.971-2.693-1.458z" fill="#000"/><path d="M17.891 23.26c-.147-.358.017-.506.238-.608.1-.045.22-.05.332-.057 1.78-.095 3.562-.156 5.34-.287.862-.064 1.715-.28 2.576-.375 1.064-.116 2.083-.41 3.08-.767 1.349-.482 2.676-1.04 3.704-2.09.641-.652 1.187-1.37 1.304-2.329.023-.202.163-.396.163-.596.005-1.159-.484-2.028-1.764-2.14-.66-.056-1.339-.08-1.99.015-.662.095-1.317.309-1.944.55-1.156.447-2.106 1.233-3.09 1.967-.586.44-1.215.82-1.825 1.225-.361.24-.732.468-1.085.72-.126.09-.212.237-.392.448.297.034.477.072.66.074.643.002 1.282 0 1.921-.16.622-.156 1.277-.17 1.907-.3 1.154-.243 2.265-.616 3.177-1.402.382-.327.721-.714 1.042-1.104.169-.204.294-.406.594-.282.232.097.4.52.33.77a3.095 3.095 0 01-1.214 1.716c-.964.676-2.006 1.21-3.16 1.486-.734.176-1.487.27-2.213.463-1.235.328-2.486.235-3.733.185-.615-.023-1.132-.304-1.486-.866-.309-.49-.247-.976-.062-1.453.226-.59.66-1.05 1.126-1.458a92.903 92.903 0 012.773-2.33 51.57 51.57 0 012.334-1.795c.736-.532 1.558-.873 2.45-1.106 1.302-.34 2.57-.128 3.83.09.77.133 1.54.366 2.206.833.734.513 1.252 1.145 1.532 2.03a5.15 5.15 0 01.206 2.188 6.469 6.469 0 01-.833 2.51c-.867 1.493-2.225 2.38-3.75 3.05-1.015.45-2.077.76-3.171.99-.794.167-1.589.314-2.387.452-1.797.316-3.597.204-5.392.133-1.126-.055-2.246-.262-3.334-.39zm33.065 9.225c.102.183.204.292.223.41.157.967.354 1.92.188 2.921-.212 1.263-.905 2.21-1.731 3.123-.898.992-1.717 2.056-2.624 3.039-.558.605-1.218 1.118-1.833 1.671-.49.44-1.08.784-1.366 1.408-.159.352-.337.73-.356 1.105-.062 1.137-.062 2.277-.064 3.416 0 .26.052.527.124.78a.881.881 0 01-.736 1.11c-.497.072-.948-.106-1.359-.32-.788-.409-1.258-1.09-1.54-1.94-.231-.696-.274-1.413-.362-2.118-.097-.767.133-1.527.316-2.282.23-.954.76-1.71 1.401-2.405a5.95 5.95 0 011.06-.933c1.006-.672 1.752-1.6 2.545-2.482 1.006-1.118 2.001-2.243 3.01-3.362.606-.67 1.228-1.322 1.833-1.992.273-.304.649-.5.857-.876.055-.112.233-.16.414-.273zM3.98 36.296c-.646 0-1.29.007-1.935-.002a2.497 2.497 0 01-1.653-.65c-.256-.226-.434-.492-.351-.841.083-.342.354-.549.681-.608.35-.064.717-.105 1.069-.062.921.11 1.83-.029 2.704-.237.87-.207 1.684-.644 2.539-.931 1.018-.34 2.051-.634 3.082-.936.486-.142.98-.263 1.472-.39.109-.028.223-.042.335-.054 1.032-.104 2.044-.28 3.027-.64.596-.222 1.23-.34 1.85-.502.802-.206 1.605-.418 2.412-.61.779-.185 1.57-.278 2.367-.157.238.036.482.117.687.24.38.23.391.453.019.681-.433.264-.886.52-1.363.68-1.318.439-2.66.81-3.98 1.241-.966.316-1.926.668-2.87 1.043-1.221.486-2.418 1.033-3.64 1.515-.877.346-1.76.7-2.67.926-.802.197-1.645.237-2.474.316-.432.04-.871.007-1.308.007v-.029zm-2.437 1.18c.575.11 1.161.173 1.72.335 1.087.315 2.115.774 3.072 1.393.89.575 1.536 1.38 2.142 2.223.624.867 1.22 1.752 1.838 2.624.337.477.688.945 1.037 1.412.287.385.65.677 1.097.853 1.002.394 1.995.819 3.016 1.156 1.132.373 2.113.983 3.006 1.74.472.402.895.865 1.325 1.316.111.116.183.287.225.447.076.294-.062.472-.37.489-.732.04-1.406-.14-2.054-.485a59.188 59.188 0 00-2.776-1.382c-1.018-.477-2.07-.88-3.075-1.38-1.011-.503-1.792-1.28-2.436-2.217a12.61 12.61 0 00-1.408-1.683c-.957-.983-1.914-1.976-2.947-2.873-.992-.862-2.165-1.43-3.497-1.589-.46-.055-.824-.297-1.13-.598-.292-.288-.42-.7-.254-1.097.163-.394.546-.556.95-.627.166-.029.339-.005.51-.005a.628.628 0 00.01-.052z" fill="#000"/><path d="M51.455 27.601c-.076.622-.076 1.25-.247 1.826-.14.468-.437.914-.748 1.301-.458.57-1 1.073-1.49 1.615-.153.166-.243.387-.395.553-.56.608-1.116 1.223-1.71 1.798a144.466 144.466 0 01-3.454 3.26c-.501.453-1.074.835-1.632 1.22-1.092.75-2.3 1.25-3.552 1.672-.57.192-1.106.489-1.645.762-.409.204-.608.503-.52 1.014.19 1.08.316 2.168.665 3.222.258.783.346 1.622.536 2.429.18.77.394 1.531.592 2.296.033.128.075.252.097.382.035.212-.048.406-.24.466-.138.042-.363.019-.46-.072-.26-.24-.544-.498-.682-.81-.294-.674-.513-1.381-.74-2.082-.447-1.38-.827-2.778-1.554-4.053-.268-.47-.453-.992-.643-1.503-.404-1.08.107-2.45 1.111-3.141.525-.361 1.111-.61 1.724-.803 1.367-.43 2.728-.878 4.084-1.339 2.06-.7 3.744-1.97 5.269-3.485.45-.45.978-.822 1.42-1.276.926-.952 1.859-1.897 2.657-2.972.463-.625.726-1.328 1.087-1.992.086-.164.116-.392.47-.288zM25.966.051c-1.84.52-3.694.877-5.451 1.563-2.125.83-4.1 1.92-5.644 3.65-1.028 1.148-1.99 2.357-3.009 3.518-1.156 1.318-2.467 2.472-3.849 3.552a45.218 45.218 0 01-4.262 2.964 25.76 25.76 0 01-2.23 1.222c-.27.131-.64.157-.942.105-.565-.1-.65-.425-.499-1.054.114-.47.38-.903.796-1.2.377-.27.748-.56 1.156-.78 1.795-.972 3.531-2.03 5.053-3.4.995-.896 1.956-1.822 2.947-2.722 1.325-1.206 2.657-2.403 4.179-3.367 1.624-1.028 3.264-2.028 4.986-2.887.67-.335 1.349-.67 2.056-.91.51-.173 1.071-.237 1.612-.263.853-.045 1.708-.02 2.56-.02.18-.004.361.018.541.03zm-11.55.377c-.164.197-.308.423-.5.594-.976.862-1.986 1.686-2.94 2.571a35.535 35.535 0 00-2.173 2.223 14.58 14.58 0 01-3.512 2.828c-1.289.75-2.645 1.36-3.993 1.985-.649.3-1.209-.104-1.268-.833C-.075 8.509.5 7.59 1.583 6.953c.729-.43 1.5-.793 2.194-1.272a27.224 27.224 0 002.357-1.852C7.388 2.743 8.601 1.61 9.841.509c.38-.337.833-.496 1.353-.489.796.012 1.593-.01 2.391-.002.295.004.62-.029.831.41zm-2.786 51.06H9.833c-2.617-.003-5.236.007-7.852-.017-.523-.005-1.05-.111-1.558-.235-.15-.036-.325-.273-.354-.44-.06-.35-.047-.716-.033-1.077a.61.61 0 01.556-.553c.275-.022.57-.003.835.073.546.152 1.076.363 1.617.53.176.054.376.07.558.05.28-.034.373-.269.202-.497-.085-.116-.228-.19-.342-.285-.767-.64-1.564-1.249-2.291-1.93-.717-.674-1.17-1.51-1.147-2.54.007-.324-.01-.647.014-.967a1.73 1.73 0 01.129-.546c.156-.364.258-.397.603-.205 1.524.846 2.892 1.912 4.2 3.056.824.722 1.472 1.6 2.203 2.408.461.51 1.029.95 1.613 1.318.731.46 1.534.805 2.293 1.22.221.117.506.2.551.637zm38.075-.076c-1.069.2-1.957.026-2.567-.848-.197-.28-.3-.657-.347-1.004-.107-.762.024-1.51.29-2.232.235-.639.472-1.278.69-1.921.49-1.448 1.264-2.719 2.363-3.78.16-.154.364-.28.57-.363.409-.164.696.007.696.441-.002.663-.069 1.33-.449 1.904-.6.912-.952 1.91-1.17 2.976-.138.681-.366 1.341-.549 2.016-.126.47-.275.938-.351 1.417-.074.468.145.834.558 1.083.097.057.156.18.266.31zM6.88.1c-.159.126-.273.247-.41.32a336.01 336.01 0 01-3.294 1.758c-.667.351-1.339.69-2.016 1.023a.788.788 0 01-1.123-.65 5.262 5.262 0 01.017-1.024C.097 1.185.227.881.56.687.97.446 1.398.303 1.865.2c1.6-.354 3.215-.095 4.82-.171.048-.003.098.033.195.071zm56.235 11.395h2.03l2.493-7.477 2.445 7.477h2.03L75.884.225h-2.509L71.074 7.78 68.533.192h-1.79l-2.525 7.589L61.916.224H59.36l3.756 11.271zm19.1-2.001c-1.965 0-3.452-1.553-3.452-3.666 0-2.114 1.487-3.667 3.452-3.667 1.966 0 3.452 1.553 3.452 3.667 0 2.113-1.486 3.666-3.452 3.666zm0 2.161c3.373 0 5.802-2.61 5.802-5.827 0-3.234-2.43-5.828-5.802-5.828-3.372 0-5.8 2.594-5.8 5.828 0 3.218 2.428 5.827 5.8 5.827zm13.298-2.161c-1.966 0-3.452-1.553-3.452-3.666 0-2.114 1.486-3.667 3.452-3.667 1.965 0 3.452 1.553 3.452 3.667 0 2.113-1.487 3.666-3.452 3.666zm0 2.161c3.372 0 5.801-2.61 5.801-5.827 0-3.234-2.43-5.828-5.801-5.828-3.373 0-5.802 2.594-5.802 5.828 0 3.218 2.43 5.827 5.802 5.827zm7.879-.224h4.187c3.628 0 6.137-2.305 6.137-5.603 0-3.298-2.509-5.604-6.137-5.604h-4.187v11.207zm2.301-2.065V2.289h1.694c2.509 0 3.964 1.313 3.964 3.539 0 2.225-1.455 3.538-3.964 3.538h-1.694zM65.928 31.828c1.166 0 2.285-.289 3.18-.817V28.69c-.895.704-1.918.976-3.068.976-2.174 0-3.82-1.505-3.82-3.666 0-2.13 1.614-3.666 3.724-3.666 1.262 0 2.125.304 2.94.864v-2.321c-.879-.464-1.853-.705-2.956-.705-3.468 0-6.057 2.418-6.057 5.828s2.62 5.828 6.057 5.828zm5.142-.225h2.301v-4.53h1.934l3.26 4.53h2.67l-3.453-4.787c1.47-.448 2.318-1.633 2.318-3.105 0-1.922-1.439-3.314-3.852-3.314H71.07v11.206zm2.301-6.468v-2.721h2.75c1.038 0 1.661.48 1.661 1.36 0 .897-.623 1.361-1.662 1.361h-2.749zm8.399 6.468h2.412l1.103-2.593h4.73l1.103 2.593h2.445l-4.794-11.27h-2.206l-4.794 11.27zm4.234-4.498l1.646-3.89 1.63 3.89h-3.276zm9.038 4.498h2.302v-4.835h4.554v-2.033h-4.554v-2.273h5.897v-2.066h-8.199v11.207zm9.284-11.207v2.066h3.532v9.141h2.302v-9.141h3.548v-2.066h-9.382zM63.962 52c2.493 0 4.443-1.297 4.443-3.474 0-2.13-1.758-2.914-3.548-3.506-1.534-.465-2.717-.64-2.717-1.457 0-.625.512-1.105 1.902-1.105 1.326 0 2.733.496 3.628 1.057v-2.242a7.594 7.594 0 00-3.66-.928c-2.589 0-4.22 1.2-4.22 3.202 0 2.29 1.807 2.818 3.74 3.426 1.455.464 2.494.64 2.494 1.617 0 .896-1.055 1.297-2.158 1.297-1.55 0-3.244-.72-4.155-1.49V50.8c1.103.769 2.605 1.201 4.251 1.201zm5.28-11.431v2.065h3.532v9.142h2.301v-9.142h3.548V40.57h-9.381zM84.975 52c2.685 0 4.81-1.681 4.81-4.931v-6.5h-2.3v6.58c0 1.841-1.088 2.69-2.51 2.69-1.406 0-2.493-.849-2.493-2.69v-6.58h-2.285v6.5c0 3.25 2.093 4.931 4.778 4.931zm7.118-.224h4.187c3.627 0 6.137-2.306 6.137-5.604s-2.51-5.603-6.137-5.603h-4.188v11.207zm2.3-2.065v-7.077h1.695c2.509 0 3.963 1.313 3.963 3.538 0 2.226-1.454 3.539-3.963 3.539h-1.694zm10.187 2.065h2.285V40.569h-2.285v11.207zm10.238-1.937c-1.965 0-3.452-1.553-3.452-3.667 0-2.113 1.487-3.666 3.452-3.666 1.966 0 3.452 1.553 3.452 3.666 0 2.114-1.486 3.667-3.452 3.667zm0 2.161c3.372 0 5.802-2.61 5.802-5.828 0-3.234-2.43-5.827-5.802-5.827-3.372 0-5.801 2.593-5.801 5.827 0 3.218 2.429 5.828 5.801 5.828z" fill="#000"/></svg>