<svg width="46" height="45" fill="none" xmlns="http://www.w3.org/2000/svg"><g clip-path="url(#clip0)" fill="#000"><path d="M23 4.157c-3.77 0-7.302 1.449-9.946 4.08l-.04.04a.648.648 0 00.011.93c.266.254.691.25.95-.01l.04-.038C16.401 6.78 19.592 5.472 23 5.472c6.946 0 12.597 5.528 12.597 12.324 0 6.795-5.651 12.323-12.597 12.323s-12.598-5.528-12.598-12.323c0-2.22.61-4.396 1.764-6.293a.65.65 0 00-.234-.901.68.68 0 00-.921.228 13.4 13.4 0 00-1.953 6.966c0 7.52 6.254 13.639 13.942 13.639 7.687 0 13.942-6.119 13.942-13.64 0-7.52-6.255-13.638-13.942-13.638z"/><path d="M40.028 15.059c-.365-.532-.71-1.034-.838-1.507-.139-.506-.097-1.128-.054-1.788.066-.983.133-2-.38-2.868-.522-.882-1.464-1.335-2.375-1.772-.599-.288-1.165-.56-1.532-.92-.368-.36-.646-.913-.94-1.499-.448-.891-.91-1.813-1.812-2.323-.887-.502-1.927-.436-2.932-.372-.674.043-1.31.083-1.827-.052-.484-.127-.998-.464-1.54-.82C24.985.603 24.066 0 23 0s-1.987.604-2.798 1.137c-.543.357-1.056.694-1.54.82-.517.136-1.154.096-1.828.053-1.005-.064-2.044-.13-2.932.372-.901.51-1.364 1.432-1.811 2.323-.294.586-.572 1.14-.94 1.5-.368.36-.934.631-1.533.919-.91.437-1.853.89-2.374 1.772-.514.868-.446 1.885-.381 2.868.044.66.085 1.282-.053 1.788-.13.473-.474.975-.839 1.507-.545.793-1.162 1.693-1.162 2.737 0 1.043.617 1.943 1.162 2.737.365.531.71 1.033.839 1.506.138.506.097 1.129.053 1.788-.065.983-.133 2 .38 2.868.522.882 1.464 1.335 2.375 1.773.6.287 1.165.56 1.533.919.34.333.604.834.876 1.372l-4.884 8.788a1.19 1.19 0 00.017 1.196c.22.371.612.6 1.05.61l3.745.088 2.113 3.026a1.247 1.247 0 001.095.531c.438-.021.825-.26 1.034-.636l5.128-9.228c.515.264 1.072.457 1.675.457s1.159-.193 1.675-.457l5.127 9.228a1.243 1.243 0 001.1.638 1.25 1.25 0 001.03-.533l2.112-3.026 3.744-.089c.439-.01.832-.238 1.052-.61a1.19 1.19 0 00.016-1.195l-1.786-3.213a.68.68 0 00-.912-.264.65.65 0 00-.27.892l1.712 3.08-3.638.085c-.4.01-.775.209-1.001.533l-2.052 2.94-5.09-9.16c.535-.352 1.041-.682 1.519-.807.516-.135 1.153-.094 1.827-.052 1.005.064 2.045.13 2.932-.372.47-.266.82-.644 1.111-1.071L34.41 34.3a.68.68 0 00.911.264.65.65 0 00.27-.892l-1.619-2.913c.272-.538.535-1.039.876-1.372.368-.36.934-.632 1.533-.92.91-.437 1.853-.89 2.374-1.771.514-.869.446-1.886.381-2.87-.044-.658-.085-1.281.053-1.787.13-.473.474-.975.839-1.506.545-.794 1.163-1.694 1.163-2.737 0-1.044-.618-1.944-1.163-2.737zM15.09 43.599l-2.052-2.94a1.26 1.26 0 00-1-.532L8.4 40.041l4.39-7.903c.292.427.642.805 1.112 1.07.888.503 1.927.437 2.932.373.674-.042 1.31-.083 1.828.052.477.125.983.455 1.518.807l-5.09 9.16zm23.822-23.8c-.41.598-.834 1.216-1.021 1.9-.196.715-.145 1.477-.096 2.213.054.824.106 1.602-.203 2.125-.317.536-1.04.883-1.804 1.25-.67.322-1.365.656-1.89 1.17-.526.514-.867 1.193-1.196 1.85-.376.747-.73 1.453-1.278 1.763-.534.303-1.33.252-2.172.199-.753-.048-1.531-.097-2.261.094-.7.183-1.332.598-1.943.999-.715.47-1.391.914-2.048.914s-1.333-.444-2.049-.914c-.61-.401-1.242-.816-1.942-1a4.866 4.866 0 00-1.234-.137c-.343 0-.688.022-1.028.044-.842.053-1.637.104-2.172-.198-.547-.31-.902-1.017-1.277-1.765-.33-.656-.67-1.335-1.196-1.85-.526-.513-1.22-.847-1.891-1.17-.764-.366-1.486-.713-1.803-1.25-.31-.522-.258-1.3-.203-2.124.049-.736.1-1.498-.096-2.212-.187-.685-.611-1.303-1.022-1.9-.48-.7-.934-1.361-.934-2.004s.454-1.304.934-2.004c.41-.598.835-1.215 1.022-1.9.195-.715.145-1.476.096-2.213-.055-.824-.107-1.602.203-2.125.317-.535 1.039-.882 1.803-1.25.671-.322 1.365-.655 1.89-1.17.526-.514.867-1.193 1.197-1.85.375-.747.73-1.453 1.277-1.763.535-.303 1.33-.252 2.172-.199.753.048 1.531.097 2.262-.094.7-.183 1.332-.598 1.942-.999.716-.47 1.391-.914 2.049-.914.657 0 1.333.444 2.048.914.61.401 1.242.816 1.943 1 .73.19 1.509.141 2.261.093.842-.053 1.638-.104 2.172.199.548.31.903 1.016 1.278 1.764.33.656.67 1.335 1.196 1.85.525.513 1.22.847 1.89 1.17.765.366 1.487.713 1.804 1.25.309.522.257 1.3.203 2.124-.05.736-.1 1.498.096 2.212.187.685.61 1.303 1.02 1.9.481.7.935 1.361.935 2.004s-.454 1.304-.934 2.004z"/><path d="M32.232 17.18a1.584 1.584 0 00.419-1.66 1.635 1.635 0 00-1.336-1.101l-4.56-.648a.309.309 0 01-.232-.166l-2.04-4.042A1.648 1.648 0 0023 8.661a1.65 1.65 0 00-1.484.902l-2.039 4.042a.309.309 0 01-.233.166l-4.56.648a1.636 1.636 0 00-1.335 1.101 1.584 1.584 0 00.419 1.66l3.299 3.146a.3.3 0 01.089.268l-.779 4.442a1.592 1.592 0 00.658 1.583 1.673 1.673 0 001.743.123l4.078-2.097a.316.316 0 01.288 0l4.078 2.097c.561.289 1.23.242 1.742-.123.514-.365.766-.971.659-1.583l-.78-4.442a.3.3 0 01.09-.268l3.3-3.146zm-4.713 3.636l.778 4.443a.293.293 0 01-.123.296.307.307 0 01-.326.023l-4.078-2.097a1.687 1.687 0 00-1.54 0l-4.078 2.097a.307.307 0 01-.326-.023.293.293 0 01-.124-.296l.78-4.443a1.596 1.596 0 00-.476-1.432l-3.3-3.146a.29.29 0 01-.078-.31.3.3 0 01.25-.207l4.56-.648a1.652 1.652 0 001.245-.886l2.04-4.041a.303.303 0 01.277-.17c.058 0 .2.017.278.17l2.039 4.041c.24.478.707.81 1.246.886l4.559.648a.3.3 0 01.25.206.29.29 0 01-.078.31l-3.3 3.147c-.39.372-.567.907-.475 1.432z"/></g><defs><clipPath id="clip0"><path fill="#fff" d="M0 0h46v45H0z"/></clipPath></defs></svg>