<svg width="45" height="45" fill="none" xmlns="http://www.w3.org/2000/svg"><g clip-path="url(#clip0)" fill="#000"><path d="M14.563 9.022a.66.66 0 00.66-.66V6.708h1.637a.66.66 0 100-1.318h-1.803c-.636 0-1.153.517-1.153 1.153v1.82a.66.66 0 00.659.659zM37.58 6.708h1.608v1.654a.66.66 0 101.319 0V6.543c0-.636-.518-1.153-1.154-1.153H37.58a.66.66 0 100 1.319zm0 25.286h1.773c.636 0 1.154-.517 1.154-1.153v-1.758a.66.66 0 10-1.319 0v1.593H37.58a.66.66 0 100 1.318zm-22.523 0h1.803a.66.66 0 100-1.319h-1.638v-1.592a.659.659 0 10-1.318 0v1.758c0 .636.517 1.153 1.153 1.153z"/><path d="M43.208 35.676H9.798a.474.474 0 01-.474-.474V1.792C9.324.804 8.52 0 7.532 0h-5.74C.804 0 0 .804 0 1.792v10.722a.66.66 0 101.318 0V1.792c0-.261.213-.474.474-.474h5.74c.262 0 .474.213.474.474v3.203H5.772a.66.66 0 100 1.318h2.234v2.883h-1.37a.66.66 0 100 1.318h1.37v2.882H5.772a.66.66 0 100 1.318h2.234v2.882h-1.37a.66.66 0 100 1.319h1.37v2.882H5.772a.66.66 0 100 1.318h2.234v2.882h-1.37a.659.659 0 100 1.319h1.37v2.882H5.772a.66.66 0 100 1.318h2.234v3.686c0 .253.053.494.148.712l-6.836 6.835V15.596a.66.66 0 10-1.318 0v27.612C0 44.196.803 45 1.792 45h41.416c.988 0 1.792-.804 1.792-1.792v-5.74c0-.989-.804-1.792-1.792-1.792zm.474 7.532a.474.474 0 01-.474.474H2.251l6.835-6.836c.218.095.459.148.712.148h3.267v2.236a.66.66 0 101.319 0v-2.236h2.882v1.372a.66.66 0 101.318 0v-1.372h2.882v2.236a.66.66 0 101.319 0v-2.236h2.882v1.372a.66.66 0 101.318 0v-1.372h2.882v2.236a.66.66 0 101.318 0v-2.236h2.883v1.372a.66.66 0 101.318 0v-1.372h2.882v2.236a.66.66 0 101.318 0v-2.236h3.622c.261 0 .474.212.474.474v5.74z"/><path d="M18.668 24.765l7.545 4.356a1.988 1.988 0 001.983 0l7.545-4.356a1.988 1.988 0 00.992-1.717v-8.712a1.99 1.99 0 00-.992-1.718l-7.545-4.356a1.989 1.989 0 00-1.983 0l-7.545 4.356a1.988 1.988 0 00-.991 1.718v8.712c0 .706.38 1.364.991 1.717zm.66-1.142a.667.667 0 01-.333-.575v-8.335l7.55 4.36v8.718l-7.218-4.168zm7.544-14.219a.666.666 0 01.665 0l7.218 4.168-2.486 1.435a.66.66 0 10.66 1.141l2.485-1.435v8.335a.666.666 0 01-.332.576l-7.218 4.167v-8.719l2.35-1.356a.66.66 0 00-.66-1.142l-2.35 1.357-7.55-4.36 7.218-4.167z"/></g><defs><clipPath id="clip0"><path fill="#fff" d="M0 0h45v45H0z"/></clipPath></defs></svg>