<svg width="45" height="45" fill="none" xmlns="http://www.w3.org/2000/svg"><path d="M45 9.448c0-4.31-11.593-6.636-22.5-6.636-4.717 0-9.22.403-13.022 1.165a.66.66 0 10.26 1.293c8.244-1.653 20.225-1.548 28.032.588 2.858.782 5.912 2.136 5.912 3.59 0 4.331-22.52 7.402-36.452 3.59-2.858-.782-5.912-2.136-5.912-3.59 0-1.427 2.963-2.765 5.735-3.541a.66.66 0 00-.355-1.27C2.316 5.865 0 7.528 0 9.447v2.638c0 4.038 10.217 6.357 20.523 6.612V30.86a.66.66 0 101.318 0V18.718c.422.003.86.004 1.318 0v16.834a.66.66 0 01-1.318 0v-1.846a.66.66 0 10-1.319 0v.957c-2.86.607-5.26 2.464-5.26 4.156 0 .988.833 1.864 2.346 2.466 1.32.526 3.062.815 4.904.815s3.584-.29 4.905-.815c1.513-.602 2.346-1.478 2.346-2.466 0-.857-.65-1.822-1.783-2.647-.985-.717-2.211-1.245-3.503-1.515v-15.96c4.174-.102 8.125-.524 11.465-1.227a.66.66 0 00-.272-1.29c-8.432 1.775-20.983 1.657-28.86-.623-6.27-1.815-5.418-3.644-5.492-3.743 3.338 2.788 12.478 4.27 21.182 4.27 8.704 0 17.843-1.482 21.182-4.27v.271c0 .434-.386 1.965-5.348 3.43a.659.659 0 10.374 1.264C42.824 15.564 45 13.94 45 12.085V9.448zm-16.555 29.37c0 .8-2.311 1.963-5.933 1.963-3.621 0-5.932-1.162-5.932-1.962 0-.706 1.533-2.233 3.994-2.818A1.98 1.98 0 0022.5 37.53a1.98 1.98 0 001.927-1.533c2.475.58 4.018 2.112 4.018 2.823z" fill="#000"/></svg>