<svg width="30" height="30" fill="none" xmlns="http://www.w3.org/2000/svg"><path fill-rule="evenodd" clip-rule="evenodd" d="M17.5 8.75c0-1.379-1.121-2.5-2.5-2.5a2.503 2.503 0 00-2.5 2.5c0 1.379 1.121 2.5 2.5 2.5s2.5-1.121 2.5-2.5zm2.5 0c0 2.758-2.242 5-5 5s-5-2.242-5-5 2.242-5 5-5 5 2.242 5 5zM6.25 25c0-4.825 3.926-8.75 8.75-8.75s8.75 3.925 8.75 8.75a1.25 1.25 0 11-2.5 0A6.257 6.257 0 0015 18.75 6.257 6.257 0 008.75 25a1.25 1.25 0 11-2.5 0z" fill="#fff"/><mask id="a" maskUnits="userSpaceOnUse" x="6" y="3" width="18" height="24"><path fill-rule="evenodd" clip-rule="evenodd" d="M17.5 8.75c0-1.379-1.121-2.5-2.5-2.5a2.503 2.503 0 00-2.5 2.5c0 1.379 1.121 2.5 2.5 2.5s2.5-1.121 2.5-2.5zm2.5 0c0 2.758-2.242 5-5 5s-5-2.242-5-5 2.242-5 5-5 5 2.242 5 5zM6.25 25c0-4.825 3.926-8.75 8.75-8.75s8.75 3.925 8.75 8.75a1.25 1.25 0 11-2.5 0A6.257 6.257 0 0015 18.75 6.257 6.257 0 008.75 25a1.25 1.25 0 11-2.5 0z" fill="#fff"/></mask><g mask="url(#a)"><path fill="#000" d="M0 0h30v30H0z"/></g></svg>