<svg width="362" height="357" fill="none" xmlns="http://www.w3.org/2000/svg"><path d="M224.037 8.07c9.738-.165 18.459.673 26.933 3.383 5.469 1.74 10.576 4.237 15.437 7.357 7.735 4.96 14.781 10.724 21.005 17.457 10.593 11.48 19.773 23.977 26.736 37.986 3.958 7.981 6.701 16.324 7.735 25.275.46 4.023 1.757 8.063 1.002 12.07-1.232 6.569-1.035 13.253-2.513 19.822-1.576 7.013-3.481 13.845-6.24 20.463-3.58 8.573-7.883 16.751-13.418 24.207-3.104 4.188-6.207 8.441-9.87 12.12-4.401 4.418-9.64 7.982-14.074 12.366-6.388 6.323-14.255 10.068-22.22 13.664-3.728 1.692-7.751 2.743-11.627 4.106a11.08 11.08 0 00-1.741.804c-3.794 2.168-7.965 3.186-12.202 3.958-.772.132-1.659.165-2.25.575-4.746 3.268-10.396 4.27-15.667 6.191-9.279 3.384-18.689 6.389-28.099 9.378-4.467 1.412-9.066 2.365-13.566 3.646-4.27 1.199-8.474 2.594-12.727 3.793-7.653 2.135-15.355 4.155-23.008 6.29-6.914 1.922-13.779 4.007-20.677 5.912-2.89.805-5.846 1.38-8.802 1.971-2.874.591-5.485 1.675-7.686 3.662-1.1 1.002-1.15 2.004-.099 3.039.657.64 1.298 1.346 2.086 1.79 4.089 2.282 8.244 4.434 12.317 6.733 10.724 6.076 22.056 11.053 32.074 18.459 7.439 5.502 14.846 10.987 21.727 17.228 8.737 7.915 16.521 16.685 23.698 26.013 1.987 2.595 3.826 5.305 5.731 7.965.148.214.362.394.493.624 1.1 2.168 2.94 4.221 1.363 6.898-1.445 2.48-3.793 2.939-6.421 2.841-3.022-.099-6.044.082-9.065-.099-7.719-.443-14.321-3.235-19.708-9.016-8.901-9.541-18.492-18.426-28.723-26.522-7.883-6.241-16.669-11.135-25.718-15.52-8.655-4.188-17.342-8.375-24.88-14.435-6.126-4.911-11.743-10.33-14.929-17.803-3.12-7.324-3.005-14.468.74-21.497 1.494-2.792 3.711-4.664 7.012-4.976 3.268-.312 6.536-.608 9.788-.985 6.635-.805 13.286-1.413 19.855-2.562 6.553-1.134 13.007-2.792 19.477-4.303 4.927-1.15 9.903-2.184 14.731-3.662 5.699-1.758 11.283-3.843 16.867-5.945 7.455-2.809 14.895-5.65 22.236-8.721 7.16-2.989 14.255-6.175 21.284-9.492 5.518-2.595 10.757-5.863 16.373-8.179a215.276 215.276 0 0022.713-10.921c8.08-4.483 16.094-9.213 23.632-14.55 5.847-4.122 10.708-9.509 15.093-15.273 7.061-9.279 11.807-19.642 15.437-30.612 3.925-11.874 5.14-24.125 3.662-36.442-1.149-9.525-4.762-18.443-9.771-26.704-6.356-10.494-14.617-19.428-24.224-26.85-13.664-10.56-29.15-13.533-45.967-8.885-3.531.968-7.177 1.494-10.757 2.299a262.01 262.01 0 00-8.77 2.102c-3.153.804-6.24 1.84-9.426 2.496-3.695.772-7.489 1.084-11.168 1.889-4.434.969-8.917 1.97-13.187 3.481-10.281 3.613-19.691 8.836-28.132 15.832-9.591 7.932-18.262 16.718-26.277 26.21-6.979 8.278-13.942 16.571-21.366 24.454-8.047 8.54-16.784 16.39-26.095 23.583-8.49 6.552-17.441 12.35-27.016 17.129-6.52 3.251-13.368 5.748-20.446 7.603-.624.165-1.215.46-1.823.69-5.37 2.004-10.313-1.429-10.674-7.16-.345-5.469 2.496-9.476 5.797-13.171 1.773-1.987 4.204-3.465 6.52-4.894 12.661-7.801 25.471-15.388 36.59-25.373 8.326-7.489 16.077-15.552 23.32-24.125 4.877-5.764 9.788-11.496 14.862-17.096a587.006 587.006 0 0115.832-16.8c10.412-10.642 22.203-19.314 36.015-25.144 8.424-3.564 17.112-6.24 26.046-8.162 5.567-1.199 11.036-2.857 16.587-4.188 3.038-.722 6.158-1.199 9.23-1.773 11.167-2.119 22.367-4.402 32.993-3.975z" fill="#F9F9F9"/><path d="M.246 206.092c2.989 0 5.354-.312 7.62.049 8.425 1.347 16.472.164 24.092-3.531 4.32-2.086 8.49-4.5 12.613-6.93 6.06-3.564 11.906-7.506 18.557-9.953 5.978-2.2 11.907-4.565 17.983-6.454 3.465-1.067 7.177-1.396 10.79-1.905 23.008-3.219 46.115-1.116 69.189-1.084 9.574.017 19.165-.147 28.723-.755 5.025-.312 9.985-1.757 14.961-2.693 3.449-.641 6.996-1.035 10.346-2.004 5.141-1.478 10.33-2.989 15.191-5.157 6.405-2.841 12.679-6.092 18.755-9.591 8.195-4.746 15.24-10.953 20.216-19.083 2.776-4.532 5.042-9.541 5.141-15.059.082-4.976.476-10.1-.493-14.912-1.166-5.863-3.465-11.545-6.865-16.62-7.258-10.888-16.504-19.313-29.101-23.698-6.027-2.102-12.169-3.482-18.459-2.644-5.912.788-11.841 1.692-17.588 3.564-12.827 4.188-24.093 11.036-34.849 19.05-17.441 12.99-32.287 28.723-47.511 44.095-8.261 8.343-16.407 16.85-25.226 24.601-10.182 8.951-21.35 16.735-33.42 23.041-7.604 3.975-15.42 7.44-23.566 10.265-6.7 2.315-13.418 4.22-20.414 5.271-2.447.378-4.828 1.281-7.275 1.396-5.452.247-9.082-3.761-9.558-9.164-.542-6.355 4.023-11.512 8.458-13.121 2.906-1.068 6.109-1.249 9.18-1.889 7.653-1.577 15.339-2.907 22.45-6.454 4.877-2.431 10.05-4.319 14.944-6.717 8.08-3.958 15.421-9.098 22.68-14.419 14.025-10.297 26.474-22.368 39.02-34.307 6.504-6.192 12.597-12.793 19.182-18.886 9.788-9.05 20.167-17.425 31.663-24.224 4.681-2.775 9.805-4.894 14.896-6.88 5.78-2.25 11.66-4.419 17.67-5.93 9.969-2.496 20.233-3.645 30.399-1.79 8.885 1.626 16.882 5.765 24.158 11.233 11.2 8.425 19.773 18.952 25.258 31.795 2.118 4.96 4.155 10.149 3.958 15.799-.05 1.28.377 2.578.542 3.892.18 1.56.525 3.136.41 4.68-1.182 14.896-7.193 27.278-18.919 36.82-7.012 5.699-14.468 10.707-22.417 14.879-4.335 2.283-8.852 4.286-13.746 5.469-4.877 1.166-9.508 3.333-14.304 4.926-2.693.904-5.436 1.758-8.228 2.283-7.455 1.396-14.928 2.644-22.417 3.859-6.716 1.084-13.433 2.25-20.199 2.973-8.343.887-16.752 1.248-25.094 2.069-7.801.772-15.569 1.807-23.353 2.825-4.402.575-8.836 1.117-13.171 2.02-5.108 1.051-10.182 2.283-15.175 3.761-7.883 2.332-15.684 4.894-23.5 7.439-4.09 1.331-8.048 3.088-12.187 4.221-8.54 2.348-16.948 5.124-25.882 6.191-5.468.657-10.888 1.199-16.373 1.084-2.3-.049-4.582-.772-6.865-1.248-1.987-.411-2.808-1.889-2.874-3.728-.098-2.792-.016-5.518-.016-8.72z" fill="#F9F9F9"/><path d="M266.185 2.253c-.279-1.248.329-2.036 1.61-2.052 7.094-.017 14.255-.575 21.251.246 8.031.936 15.076 4.746 21.284 10.1 8.408 7.275 16.537 14.797 23.977 23.041 6.585 7.308 12.103 15.404 16.11 24.42 2.283 5.14 4.106 10.478 4.303 16.21.082 2.25.772 4.204 2.152 6.158 1.281 1.823 2.052 4.303 2.2 6.553.411 6.273 2.513 12.383 1.774 18.722-.756 6.487-1.659 12.974-2.48 19.461-.41 3.235-1.018 6.355-2.71 9.279-.739 1.281-.657 3.054-.903 4.598-.64 4.138-.838 8.408-1.971 12.399-1.461 5.14-3.317 10.231-5.649 15.043-3.81 7.85-8.146 15.438-12.268 23.123a9.534 9.534 0 01-1.346 1.906c-4.155 4.614-7.489 9.853-11.299 14.731-5.798 7.423-12.564 13.86-20.02 19.691-3.333 2.611-6.372 5.665-9.902 8.145-8.573 6.011-17.737 10.921-27.377 14.928-3.712 1.544-7.653 2.529-11.512 3.712a1833.933 1833.933 0 01-20.611 6.158c-2.496.723-5.042 1.298-7.587 1.823-3.433.707-6.914 1.216-10.33 1.938-7.423 1.593-14.846 3.17-22.236 4.96-2.086.509-4.287 1.379-5.19 4.418 1.511 1.133 2.972 2.775 4.795 3.481 4.057 1.56 7.21 4.319 10.117 7.243 6.979 7.012 11.956 15.404 15.881 24.469 3.793 8.737 6.996 17.671 9.837 26.753 1.281 4.089 3.005 8.047 4.516 12.071.23.607.378 1.264.493 1.905 1.051 5.961-3.351 9.788-9.148 7.801-5.896-2.037-10.297-5.765-13.335-11.398-5.6-10.346-10.1-21.169-14.551-32.008-3.284-7.965-8.424-14.419-15.01-19.773-3.958-3.218-8.096-6.191-12.218-9.213-4.254-3.12-8.967-5.156-14.19-6.158-3.974-.756-7.883-1.79-11.791-2.809-2.792-.722-4.484-2.841-4.467-5.255.016-2.463 2.299-5.403 4.861-5.994 1.265-.296 2.611-.296 3.909-.329 4.335-.115 8.687.05 12.99-.328 8.08-.706 16.144-1.642 24.207-2.595a346.864 346.864 0 0014.748-2.069c2.972-.476 5.912-1.15 8.819-1.921 7.554-2.004 15.191-3.778 22.581-6.241 9.032-3.022 17.851-6.618 26.342-10.987 7.636-3.925 15.027-8.211 21.826-13.483 3.744-2.907 7.866-5.452 11.134-8.835 1.922-1.988 3.777-4.205 5.617-6.34 3.58-4.154 7.292-8.211 10.461-12.661 5.518-7.719 10.921-15.536 15.914-23.6 4.516-7.292 8.54-14.895 12.547-22.499 4.253-8.064 7.833-16.505 10.017-25.34 2.546-10.281 4.812-20.742 3.597-31.466-1.248-11.069-3.531-21.875-8.589-31.992-5.239-10.477-13.023-18.721-21.481-26.539-10.034-9.278-21.382-16.636-33.075-23.517-6.109-3.58-12.399-6.717-18.624-10.084z" fill="#F9F9F9"/><path d="M123.738 160.877c-1.019-2.479.115-3.498 1.642-4.204.69-.312 1.527-.345 2.299-.394 12.317-.657 24.634-1.084 36.935-1.987 5.961-.443 11.857-1.938 17.818-2.595 7.358-.805 14.403-2.841 21.301-5.304 9.328-3.334 18.508-7.194 25.619-14.452 4.434-4.517 8.211-9.476 9.016-16.111.164-1.396 1.133-2.743 1.133-4.122.033-8.014-3.35-14.025-12.202-14.797-4.565-.394-9.262-.558-13.762.099-4.582.656-9.115 2.134-13.45 3.81-7.998 3.087-14.567 8.523-21.366 13.598-4.057 3.038-8.409 5.665-12.629 8.474-2.497 1.658-5.058 3.235-7.505 4.976-.871.624-1.462 1.642-2.71 3.104 2.053.23 3.301.492 4.565.509 4.451.016 8.869 0 13.286-1.101 4.303-1.083 8.836-1.182 13.188-2.085 7.981-1.675 15.667-4.254 21.973-9.69 2.644-2.266 4.993-4.943 7.21-7.636 1.166-1.413 2.036-2.808 4.106-1.954 1.609.673 2.775 3.596 2.282 5.32-1.428 4.927-4.237 8.967-8.392 11.874-6.667 4.681-13.877 8.376-21.858 10.281-5.075 1.215-10.281 1.872-15.306 3.202-8.54 2.266-17.195 1.626-25.817 1.281-4.253-.164-7.833-2.102-10.28-5.994-2.135-3.383-1.708-6.75-.427-10.051 1.56-4.073 4.565-7.259 7.784-10.083 6.273-5.502 12.695-10.856 19.182-16.111 5.271-4.27 10.642-8.458 16.143-12.416 5.091-3.678 10.774-6.043 16.948-7.653 9-2.348 17.77-.887 26.49.624 5.321.92 10.642 2.53 15.257 5.765 5.075 3.547 8.655 7.915 10.593 14.041 1.609 5.075 2.02 10.117 1.428 15.125a44.733 44.733 0 01-5.764 17.359c-5.994 10.33-15.388 16.472-25.931 21.103-7.029 3.104-14.37 5.256-21.941 6.849-5.485 1.149-10.987 2.168-16.505 3.12-12.432 2.184-24.88 1.412-37.296.92-7.784-.378-15.536-1.807-23.057-2.694zm228.701 63.804c.707 1.265 1.413 2.02 1.544 2.841 1.084 6.684 2.447 13.27 1.297 20.2-1.461 8.737-6.257 15.29-11.972 21.596-6.207 6.865-11.873 14.222-18.147 21.021-3.859 4.188-8.425 7.735-12.678 11.562-3.383 3.038-7.472 5.419-9.443 9.738-1.1 2.431-2.332 5.042-2.464 7.637-.427 7.866-.427 15.749-.443 23.632 0 1.79.361 3.646.854 5.387 1.002 3.547-1.347 7.144-5.091 7.686-3.432.492-6.553-.739-9.394-2.217-5.452-2.825-8.704-7.538-10.658-13.418-1.593-4.812-1.889-9.771-2.496-14.649-.674-5.304.919-10.56 2.184-15.782 1.593-6.602 5.255-11.824 9.689-16.636 2.201-2.381 4.631-4.664 7.325-6.454 6.963-4.648 12.12-11.069 17.605-17.162 6.963-7.735 13.844-15.519 20.824-23.255 4.188-4.631 8.49-9.147 12.678-13.778 1.889-2.102 4.484-3.465 5.929-6.06.378-.772 1.609-1.101 2.857-1.889zM27.523 251.042c-4.467 0-8.918.049-13.384-.017-4.353-.066-8.163-1.626-11.43-4.5-1.774-1.56-3.006-3.399-2.431-5.813.575-2.365 2.447-3.794 4.713-4.205 2.414-.443 4.96-.722 7.39-.427 6.372.756 12.662-.197 18.706-1.642 6.01-1.429 11.643-4.45 17.556-6.437 7.045-2.349 14.189-4.385 21.316-6.471 3.367-.985 6.783-1.823 10.182-2.693.756-.197 1.544-.296 2.316-.378 7.144-.723 14.14-1.938 20.939-4.434 4.122-1.528 8.507-2.349 12.793-3.465 5.551-1.429 11.102-2.891 16.686-4.221 5.386-1.281 10.855-1.921 16.373-1.084 1.642.246 3.334.805 4.746 1.659 2.628 1.593 2.71 3.137.132 4.713-2.989 1.823-6.126 3.597-9.427 4.697-9.115 3.038-18.393 5.6-27.524 8.589-6.684 2.184-13.319 4.615-19.855 7.21-8.442 3.366-16.719 7.143-25.176 10.477-6.06 2.398-12.17 4.845-18.46 6.405-5.55 1.363-11.38 1.642-17.112 2.184-2.989.28-6.027.05-9.049.05v-.197zm-16.848 8.161c3.974.755 8.03 1.198 11.89 2.315 7.521 2.184 14.632 5.354 21.25 9.64 6.16 3.975 10.626 9.542 14.814 15.372 4.32 5.994 8.441 12.12 12.711 18.147 2.332 3.301 4.763 6.536 7.177 9.772 1.987 2.66 4.5 4.68 7.587 5.895 6.93 2.727 13.795 5.666 20.857 7.998 7.834 2.579 14.616 6.799 20.791 12.038 3.268 2.776 6.192 5.978 9.164 9.098.772.805 1.265 1.987 1.56 3.088.526 2.036-.427 3.268-2.562 3.383-5.058.279-9.722-.969-14.205-3.35a408.195 408.195 0 00-19.198-9.558c-7.046-3.301-14.321-6.093-21.268-9.542-6.996-3.482-12.399-8.852-16.85-15.339-2.84-4.155-6.207-8.031-9.738-11.644-6.619-6.799-13.237-13.663-20.38-19.871-6.865-5.961-14.978-9.887-24.191-10.987-3.186-.378-5.699-2.053-7.818-4.138-2.02-1.987-2.906-4.845-1.757-7.588 1.133-2.726 3.777-3.843 6.57-4.335 1.149-.197 2.348-.033 3.53-.033.033-.148.05-.246.066-.361z" fill="#F9F9F9"/><path d="M355.889 190.903c-.526 4.303-.526 8.638-1.708 12.629-.969 3.235-3.022 6.323-5.173 9-3.17 3.941-6.914 7.423-10.314 11.167-1.051 1.15-1.675 2.677-2.726 3.827-3.876 4.204-7.718 8.457-11.824 12.432-7.867 7.62-15.782 15.191-23.895 22.548-3.465 3.137-7.423 5.781-11.283 8.441-7.554 5.19-15.913 8.639-24.568 11.562-3.941 1.33-7.653 3.383-11.381 5.272-2.825 1.412-4.204 3.481-3.596 7.012 1.313 7.472 2.184 14.994 4.598 22.286 1.79 5.419 2.398 11.216 3.711 16.8 1.249 5.321 2.727 10.593 4.09 15.881.23.887.525 1.741.673 2.644.246 1.461-.328 2.808-1.659 3.219-.952.295-2.512.131-3.186-.493-1.79-1.659-3.76-3.449-4.713-5.6-2.036-4.664-3.547-9.558-5.124-14.403-3.087-9.541-5.715-19.214-10.74-28.033-1.856-3.252-3.137-6.865-4.451-10.396-2.792-7.472.739-16.948 7.686-21.727 3.629-2.496 7.686-4.221 11.923-5.551 9.459-2.973 18.87-6.077 28.247-9.263 14.255-4.844 25.899-13.63 36.442-24.108 3.12-3.104 6.766-5.682 9.821-8.819 6.405-6.586 12.859-13.122 18.377-20.561 3.202-4.319 5.025-9.181 7.521-13.779.592-1.133.805-2.71 3.252-1.987zM179.595.357c-12.728 3.597-25.554 6.06-37.707 10.806-14.698 5.748-28.362 13.286-39.037 25.242-7.11 7.948-13.762 16.308-20.807 24.338-7.998 9.115-17.063 17.096-26.621 24.569-9.46 7.39-19.264 14.255-29.48 20.495-4.992 3.055-10.148 5.913-15.42 8.458-1.872.903-4.434 1.084-6.52.723-3.909-.69-4.5-2.94-3.449-7.292.789-3.252 2.628-6.241 5.502-8.294 2.611-1.872 5.173-3.875 7.998-5.403C26.469 87.283 38.474 79.958 49 70.482c6.881-6.191 13.533-12.596 20.38-18.82 9.165-8.343 18.378-16.62 28.905-23.288 11.233-7.11 22.581-14.025 34.488-19.97 4.631-2.315 9.328-4.631 14.222-6.29C150.527.915 154.402.472 158.147.291 164.042-.02 169.955.16 175.85.16c1.248-.033 2.497.115 3.745.197zM99.71 2.962c-1.133 1.363-2.135 2.923-3.465 4.106-6.75 5.961-13.73 11.66-20.332 17.786-5.255 4.86-10.215 10.067-15.026 15.371-7.095 7.818-15.159 14.255-24.29 19.56-8.917 5.19-18.294 9.41-27.623 13.73-4.483 2.069-8.359-.723-8.77-5.765-.722-8.901 3.252-15.257 10.741-19.658 5.042-2.973 10.38-5.485 15.175-8.803 5.682-3.925 11.085-8.277 16.308-12.81 8.67-7.505 17.063-15.338 25.635-22.958C70.691 1.189 73.828.088 77.424.138 82.926.22 88.444.072 93.962.12c2.036.033 4.286-.197 5.748 2.841zM80.442 356.116H68.011c-18.098-.017-36.213.049-54.31-.115-3.613-.033-7.26-.772-10.774-1.626-1.034-.246-2.25-1.889-2.447-3.038-.41-2.431-.328-4.96-.23-7.456.082-1.872 1.758-3.662 3.843-3.827 1.905-.147 3.942-.016 5.781.509 3.777 1.052 7.44 2.513 11.184 3.663a9.608 9.608 0 003.86.345c1.937-.23 2.578-1.856 1.395-3.433-.591-.804-1.576-1.314-2.365-1.97-5.304-4.435-10.822-8.639-15.848-13.352-4.96-4.664-8.096-10.445-7.932-17.572.05-2.234-.065-4.467.099-6.684a11.96 11.96 0 01.887-3.778c1.084-2.512 1.79-2.742 4.171-1.412 10.543 5.846 20.003 13.22 29.052 21.136 5.698 4.993 10.182 11.069 15.24 16.653 3.186 3.531 7.111 6.569 11.151 9.114 5.058 3.186 10.61 5.567 15.864 8.441 1.528.805 3.498 1.38 3.81 4.402zm263.34-.524c-7.391 1.379-13.533.18-17.753-5.863-1.363-1.938-2.07-4.549-2.398-6.947-.739-5.272.164-10.445 2.003-15.437 1.626-4.418 3.269-8.836 4.779-13.286 3.384-10.018 8.737-18.804 16.341-26.145 1.1-1.068 2.513-1.938 3.942-2.513 2.824-1.133 4.811.049 4.811 3.055-.016 4.582-.476 9.196-3.103 13.171-4.155 6.306-6.586 13.203-8.097 20.577-.952 4.714-2.529 9.279-3.794 13.943-.87 3.252-1.905 6.487-2.43 9.805-.509 3.235 1.002 5.764 3.859 7.488.674.394 1.084 1.248 1.84 2.152zM47.583.691c-1.1.87-1.889 1.708-2.841 2.217a2307.283 2307.283 0 01-22.778 12.153A554.842 554.842 0 018.02 22.14C4.638 23.8.548 21.466.253 17.64c-.18-2.348-.164-4.746.115-7.078.295-2.364 1.199-4.467 3.498-5.813 2.84-1.659 5.797-2.644 9.032-3.367C23.968-1.066 35.135.724 46.236.2c.329-.017.674.23 1.347.492z" fill="#F9F9F9"/></svg>